<?xml version="1.0" encoding="UTF-8"?>
<svg version="1.1" xmlns="http://www.w3.org/2000/svg" width="1304" height="796">
<path d="M0 0 C83.03416657 -0.02826059 166.06833533 -0.05040977 754.13175286 0.26998919 C765.98926613 0.30208733 777.84677548 0.32634229 789.70431519 0.34616089 C802.75738478 0.36807282 815.81037572 0.40026111 828.86337572 0.44860125 C835.24828709 0.47197202 841.633123 0.49119208 848.01807594 0.49763107 C853.6624808 0.50354468 859.3066558 0.52297396 864.95097554 0.55427945 C866.96712073 0.5630744 868.98329555 0.56677443 870.99945915 0.56500709 C873.69887126 0.56337736 876.39755098 0.57980488 879.09686279 0.60127258 C880.27261422 0.59400125 880.27261422 0.59400125 881.4721182 0.58658302 C883.61631393 0.61523914 883.61631393 0.61523914 887 1 C889.31754556 4.47631834 889.49343496 6.52068342 889.96182251 10.64930725 C890.08076703 11.66784 890.08076703 11.66784 890.20211446 12.70694917 C890.46625979 14.98618517 890.71868039 17.26656711 890.97119141 19.54711914 C891.15797702 21.17984393 891.34547918 22.81248688 891.53364563 24.4450531 C892.04295231 28.88206934 892.5421147 33.3201751 893.03944063 37.75854802 C893.5609014 42.39741642 894.09142616 47.03524787 894.62094116 51.67320251 C895.5088306 59.46130406 896.39078865 67.25005789 897.26855469 75.03930664 C898.50760821 86.0345212 899.75724179 97.02851406 901.00904202 108.02228367 C901.97936942 116.54718206 902.9470539 125.07238084 903.9140625 133.59765625 C904.0700607 134.97282626 904.0700607 134.97282626 904.22921038 136.37577748 C904.82605038 141.63901455 905.42151863 146.9024037 906.01495934 152.16602516 C906.19518551 153.76327506 906.37578708 155.36048264 906.55678368 156.95764542 C906.8029674 159.13087076 907.04775636 161.30424854 907.29214478 163.47767639 C907.42965967 164.69607743 907.56717457 165.91447847 907.70885658 167.16980076 C908 170 908 170 908 172 C933.41 172 958.82 172 985 172 C989.99411765 204.46176471 989.99411765 204.46176471 991.25 213.5 C991.50910156 215.24410156 991.50910156 215.24410156 991.7734375 217.0234375 C992.27746706 220.67965193 992.67042828 224.32395323 993 228 C993.09794861 229.02267471 993.09794861 229.02267471 993.19787598 230.06600952 C994.34338698 243.58261678 990.76402082 253.61558161 985.25 265.8125 C984.4706764 267.60021676 983.69467056 269.38938326 982.921875 271.17993164 C981.3729843 274.76019711 979.80908919 278.33325152 978.23242188 281.90136719 C975.29596798 288.57143826 972.5268997 295.30811565 969.77038574 302.05404663 C968.56272053 305.00656896 967.34437804 307.95464313 966.125 310.90234375 C965.73570312 311.84585693 965.34640625 312.78937012 964.9453125 313.76147461 C964.34055467 315.19355739 963.69521121 316.60957758 963 318 C891.39 318.33 819.78 318.66 746 319 C746.66 328.57 747.32 338.14 748 348 C748.64551834 362.78295147 746.71318224 374.91593566 743.0625 389.125 C742.58726057 391.05291016 742.11394334 392.9812952 741.64257812 394.91015625 C738.21345979 408.78654021 738.21345979 408.78654021 737 410 C735.5112814 410.08669432 734.018555 410.10703494 732.52734375 410.09765625 C731.62822266 410.09443359 730.72910156 410.09121094 729.80273438 410.08789062 C728.85720703 410.07951172 727.91167969 410.07113281 726.9375 410.0625 C725.98810547 410.05798828 725.03871094 410.05347656 724.06054688 410.04882812 C721.70696935 410.0370011 719.35351523 410.02052025 717 410 C717.10514671 411.17341194 717.10514671 411.17341194 717.2124176 412.37052917 C717.87907732 419.93403889 718.48479915 427.49930872 719.03091526 435.07239819 C719.31327444 438.96117448 719.61487168 442.84589543 719.9699707 446.72875977 C722.26754706 472.58387135 718.44467286 489.50523379 712 516 C614.65 516 517.3 516 417 516 C416 503 416 503 416 492 C393.23 492 370.46 492 347 492 C347 499.92 347 507.84 347 516 C314 516 281 516 247 516 C244.43860228 506.39475856 241.97089654 496.84602571 239.79199219 487.15844727 C239.49604083 485.85211704 239.19988142 484.54583393 238.90353394 483.23959351 C237.94668973 479.01623513 236.99627702 474.79144291 236.046875 470.56640625 C235.88393228 469.84175887 235.72098955 469.11711149 235.55310917 468.37050509 C234.01093424 461.51163609 232.4709687 454.65227521 230.93693161 447.79158115 C228.99131652 439.09070381 227.03425928 430.39258062 225.0613811 421.69784313 C223.66502445 415.53949901 222.28191262 409.37826795 220.90830731 403.21480983 C220.09182291 399.55278805 219.26990574 395.89220616 218.43361664 392.23465157 C211.86862362 363.48364098 211.86862362 363.48364098 213 350 C213.13444886 347.49611168 213.26859804 344.99220723 213.40234375 342.48828125 C213.57480127 340.09591946 213.75313815 337.70397386 213.9375 335.3125 C214.06801758 333.48041992 214.06801758 333.48041992 214.20117188 331.61132812 C214.56834327 326.65315438 214.98925041 321.87024904 216 317 C215.39157226 317.00111031 214.78314451 317.00222061 214.15627956 317.00336456 C169.24497394 317.0808992 124.33820457 316.86835725 79.42809522 316.55461788 C70.5128022 316.49242506 61.59749262 316.43277162 52.68218148 316.37324238 C34.45476913 316.25148209 16.22737785 316.12681515 -2 316 C-2.78729098 314.11607519 -3.57400079 312.23190749 -4.36047363 310.34764099 C-4.79863655 309.29842185 -5.23679947 308.24920271 -5.68824005 307.16818905 C-7.66514888 302.39351903 -9.57046116 297.59150934 -11.46875 292.78515625 C-11.87154175 291.76755722 -12.2743335 290.74995819 -12.68933105 289.70152283 C-13.53347623 287.56822828 -14.37709906 285.43472698 -15.22021484 283.30102539 C-16.91233024 279.01908896 -18.60738421 274.73831841 -20.30322266 270.45785522 C-21.11692711 268.3970031 -21.92655164 266.33453504 -22.73193359 264.27041626 C-25.10466263 258.1863876 -25.10466263 258.1863876 -27.70703125 252.19873047 C-34.35692566 237.14046605 -30.47668503 219.73074194 -28.26196289 203.9699707 C-27.96704678 201.80987117 -27.67313545 199.64963426 -27.38014221 197.48927307 C-26.5886595 191.67457589 -25.78322198 185.86189116 -24.97505879 180.04949212 C-24.12925619 173.94891776 -23.29637524 167.8465792 -22.46202087 161.74443054 C-21.06127604 151.51291647 -19.65240708 141.28255011 -18.23754883 131.05297852 C-16.24220806 116.62645617 -14.26076668 102.19805093 -12.28249753 87.76917899 C-9.63139023 68.43701182 -6.9755785 49.10548485 -4.30515099 29.77597618 C-4.01664116 27.68703413 -3.72840691 25.598054 -3.44046783 23.5090332 C-3.04753362 20.65896741 -2.65351447 17.80905377 -2.25917053 14.95918274 C-2.14535492 14.1322472 -2.03153932 13.30531166 -1.91427475 12.45331746 C-1.80778184 11.68550803 -1.70128892 10.91769859 -1.59156895 10.1266222 C-1.50081579 9.46980798 -1.41006263 8.81299375 -1.31655937 8.13627607 C-0.91374963 5.41794612 -0.45754011 2.70959261 0 0 Z " fill="#020101" transform="translate(171,140)"/>
<path d="M0 0 C56.43 0 112.86 0 171 0 C172.05767304 3.17301913 172.33097548 5.86088009 172.60705566 9.1932373 C172.71636917 10.49092545 172.82568268 11.78861359 172.93830872 13.12562561 C173.05595101 14.56746838 173.17351741 16.00931735 173.29101562 17.45117188 C173.41730542 18.96759095 173.54391547 20.48398338 173.67082214 22.00035095 C174.01519534 26.1270685 174.3548552 30.2541618 174.69354057 34.38134956 C175.04974165 38.71418445 175.40972953 43.04670492 175.76916504 47.37927246 C176.37363315 54.6727183 176.97507042 61.96640935 177.57470703 69.26025391 C178.26434833 77.64847292 178.95859833 86.03630042 179.65543032 94.42392492 C180.32818077 102.52292173 180.99766587 110.62218539 181.66569519 118.72157288 C181.94853123 122.15015623 182.23245107 125.57864715 182.51728821 129.00706482 C185.23842368 161.78505195 185.23842368 161.78505195 185.69936371 173.29392242 C185.86816225 177.37169436 186.23595545 181.38170621 186.75205231 185.42679596 C188.0319551 196.03551076 188 204.94854422 188 216 C162.26 216 136.52 216 110 216 C109.25892235 210.81245643 108.94489559 206.22356945 109.0625 201.0625 C109.15580711 193.67179895 108.68797981 186.41913316 108 179.0625 C107.02952379 168.64716605 106.83655919 158.46021203 107 148 C98.42 148 89.84 148 81 148 C81.33 149.32 81.66 150.64 82 152 C82.42198649 156.7073858 82.66816202 161.42585363 82.92993164 166.14453125 C83.0574041 168.40945633 83.19713243 170.67336812 83.33789062 172.9375 C84.15310141 187.35385912 84 201.48046273 84 216 C58.59 216 33.18 216 7 216 C5.75913912 199.24837818 4.64404811 182.66921006 4.21875 165.90625 C4.16032232 163.79500724 4.10128939 161.68378116 4.04170227 159.5725708 C3.91794713 155.15063987 3.79777569 150.72863442 3.68081665 146.30651855 C3.40678743 135.94703615 3.11576595 125.58802376 2.82621193 115.22896576 C2.73092532 111.8132416 2.63640123 108.39749689 2.54191589 104.98175049 C2.19058504 92.34563424 1.81028589 79.71122811 1.36328125 67.078125 C1.33910503 66.39155823 1.31492882 65.70499146 1.29001999 64.99761963 C1.02355887 57.44901416 0.74558983 49.90092302 0.45019531 42.35339355 C-0.03754175 28.18936826 0 14.21855764 0 0 Z " fill="#CC6EEA" transform="translate(776,159)"/>
<path d="M0 0 C24.42 0 48.84 0 74 0 C74 7.42940211 73.79678988 14.38994744 72.94140625 21.70703125 C72.8327977 22.67605881 72.72418915 23.64508636 72.61228943 24.64347839 C72.38392559 26.67141266 72.15270042 28.69902663 71.91870117 30.72631836 C71.56146768 33.82144415 71.21258026 36.9174223 70.86523438 40.01367188 C70.641104 41.99484591 70.41651089 43.97596767 70.19140625 45.95703125 C70.08719864 46.87587601 69.98299103 47.79472076 69.87562561 48.7414093 C69.72558327 50.03887337 69.72558327 50.03887337 69.57250977 51.36254883 C69.48590591 52.11546707 69.39930206 52.86838531 69.31007385 53.64411926 C68.94217653 56.43933145 68.46349319 59.21904087 68 62 C75.92 62 83.84 62 92 62 C92.144375 59.56625 92.28875 57.1325 92.4375 54.625 C93.56129964 36.43870036 93.56129964 36.43870036 95 35 C95.28991964 32.66584331 95.52283058 30.35034373 95.71875 28.0078125 C95.78155151 27.30606903 95.84435303 26.60432556 95.90905762 25.88131714 C96.11029738 23.62956421 96.30570677 21.37736225 96.5 19.125 C96.69458631 16.87981033 96.89051872 14.63478269 97.09094238 12.3901062 C97.21577478 10.99142687 97.33722951 9.5924411 97.45495605 8.19314575 C97.71455909 5.27869172 98.06999745 2.79000764 99 0 C123.42 0 147.84 0 173 0 C171.875 14.625 171.875 14.625 171.33569336 20.9934082 C171.24769218 22.03501099 171.24769218 22.03501099 171.15791321 23.09765625 C170.96902221 25.33207092 170.77944342 27.56642661 170.58984375 29.80078125 C170.45670832 31.37403504 170.32361689 32.94729256 170.19056702 34.52055359 C169.84413555 38.61558677 169.49711569 42.71056987 169.14996338 46.80554199 C168.73148529 51.74336706 168.31375552 56.68125548 167.89589691 61.619133 C167.26449725 69.07947007 166.63216097 76.53972722 166 84 C149.17 84 132.34 84 115 84 C115 87.96 115 91.92 115 96 C114.67 99.3 114.34 102.6 114 106 C130.5 106 147 106 164 106 C162.6798593 122.44765462 161.3563584 138.8950231 160.02435303 155.34172058 C159.9081595 156.77647885 159.79196889 158.21123735 159.67578125 159.64599609 C159.59032736 160.70119493 159.59032736 160.70119493 159.50314713 161.77771091 C159.12936801 166.39545901 158.75753848 171.01336076 158.38671875 175.63134766 C157.93023733 181.31422094 157.46945728 186.99672784 157.00500488 192.67895508 C156.83502544 194.76769237 156.66664924 196.85656075 156.49987793 198.94555664 C156.26975108 201.82474289 156.03405833 204.70341902 155.796875 207.58203125 C155.73040771 208.43005814 155.66394043 209.27808502 155.59545898 210.15180969 C155.11415064 215.88584936 155.11415064 215.88584936 154 217 C151.56603981 217.09498646 149.16057048 217.12558417 146.72631836 217.11352539 C145.96539383 217.11367142 145.2044693 217.11381744 144.42048645 217.1139679 C141.89357702 217.11326862 139.36674038 217.10547555 136.83984375 217.09765625 C135.0924941 217.09579212 133.34514393 217.0943682 131.59779358 217.09336853 C126.98968066 217.08954293 122.38159905 217.07971229 117.77349854 217.06866455 C113.07491479 217.05845134 108.37632601 217.0538711 103.67773438 217.04882812 C94.45180913 217.03809005 85.22590716 217.02101313 76 217 C75.95758277 214.66705225 75.95907063 212.33297433 76 210 C76.33 209.67 76.66 209.34 77 209 C77.21259101 206.57882455 77.37664599 204.17596222 77.5 201.75 C77.87098674 194.61881052 77.87098674 194.61881052 78.47265625 191.73291016 C79.12684851 188.34261935 79.41958547 184.97903202 79.71875 181.5390625 C79.78155151 180.83026947 79.84435303 180.12147644 79.90905762 179.39120483 C80.10864165 177.13602311 80.30464108 174.88055137 80.5 172.625 C80.69565839 170.37661937 80.89216486 168.12832563 81.09094238 165.88021851 C81.27165017 163.835201 81.44938512 161.78992143 81.62695312 159.74462891 C81.98488281 156.15174574 82.48937444 152.57437892 83 149 C74.75 149 66.5 149 58 149 C57.2012397 156.93102797 57.2012397 156.93102797 56.5 164.8671875 C56.4175 165.85460937 56.335 166.84203125 56.25 167.859375 C56.08140351 169.8930701 55.91478038 171.92692964 55.75 173.9609375 C55.6675 174.940625 55.585 175.9203125 55.5 176.9296875 C55.4278125 177.80866699 55.355625 178.68764648 55.28125 179.59326172 C55.02211864 181.81072436 54.55770625 183.84319682 54 186 C53.84810346 188.08154515 53.72680583 190.16540451 53.625 192.25 C52.98125522 200.23243529 51.47584721 208.12881486 50 216 C24.59 216 -0.82 216 -27 216 C-27 201.37669095 -27 201.37669095 -26.1953125 195.6953125 C-26.02386719 194.45136719 -25.85242188 193.20742188 -25.67578125 191.92578125 C-25.49402344 190.67152344 -25.31226563 189.41726563 -25.125 188.125 C-24.95097656 186.87847656 -24.77695313 185.63195312 -24.59765625 184.34765625 C-24.24485519 181.82055532 -23.88912145 179.29386215 -23.53051758 176.76757812 C-22.22336506 167.4845695 -21.02230903 158.18721646 -19.81640625 148.890625 C-16.00066097 119.50356095 -16.00066097 119.50356095 -14.4375 110.25 C-13.03950269 101.86392987 -12.10187045 93.43453643 -11.14779663 84.9887085 C-7.91941587 56.60407618 -3.83396115 28.30365438 0 0 Z " fill="#CC6EEB" transform="translate(185,157)"/>
<path d="M0 0 C24.42 0 48.84 0 74 0 C74 9.07459893 73.91731476 17.72152632 73.125 26.6875 C71.96672922 40.89286377 71.35498168 55.11117701 70.78564453 69.3503418 C70.37866162 79.23641741 69.80204428 89.09171716 69.0390625 98.95703125 C67.88799218 113.85463766 67.11676036 128.76474996 66.375 143.6875 C66.24022641 146.35875667 66.10452476 149.02996593 65.96875 151.70117188 C65.64203184 158.13393377 65.32111748 164.56694655 65 171 C73.25 171 81.5 171 90 171 C89.96914307 168.21216064 89.93828613 165.42432129 89.90649414 162.55200195 C89.85571289 148.17014634 90.65340002 133.81869691 91.38057208 119.46024871 C91.57703678 115.5618278 91.76798306 111.66313576 91.95973206 107.76448059 C92.28152981 101.23823282 92.60733731 94.71219529 92.93579102 88.1862793 C93.31448461 80.66145072 93.68735109 73.13635077 94.05703682 65.61107463 C94.41508539 58.32428983 94.77657637 51.03768008 95.13984871 43.75115395 C95.29353527 40.6680817 95.44614874 37.58495917 95.59789848 34.501791 C95.77647773 30.87761745 95.9581213 27.25360967 96.14208221 23.62970543 C96.24048561 21.67776582 96.3359706 19.72567976 96.43135071 17.77359009 C96.49162445 16.59813126 96.55189819 15.42267242 96.61399841 14.21159363 C96.66469703 13.19908633 96.71539564 12.18657904 96.76763058 11.1433897 C97.0431379 7.41644979 97.53646865 3.70825081 98 0 C122.42 0 146.84 0 172 0 C172 24.13290431 172 24.13290431 171.64868164 36.14941406 C171.61065337 37.5239191 171.57287627 38.8984311 171.5353241 40.27294922 C171.43466209 43.92983501 171.33039208 47.58660882 171.2252152 51.2433672 C171.11440126 55.11367009 171.00659586 58.98405713 170.89830017 62.85443115 C170.71627771 69.34279338 170.53184603 75.83108369 170.34594727 82.31933594 C170.13243283 89.77256038 169.92291207 97.22588912 169.71548563 104.67928529 C169.51393118 111.91790924 169.30940185 119.15644638 169.10360527 126.39495087 C169.01693277 129.44548692 168.9312814 132.49604893 168.84651375 135.54663849 C168.74629926 139.14860501 168.64344263 142.75048745 168.53871346 146.35232544 C168.48352643 148.27037815 168.43082902 150.18850202 168.37826538 152.10662842 C168.10336161 161.4279882 167.54832422 170.67848833 167 180 C166.67 191.88 166.34 203.76 166 216 C105.94 216 45.88 216 -16 216 C-16 208.28165319 -15.98191378 200.84283622 -15.34375 193.19921875 C-15.27716187 192.35196732 -15.21057373 191.50471588 -15.14196777 190.63179016 C-14.93273642 187.98328834 -14.71652206 185.33541465 -14.5 182.6875 C-14.35500097 180.86787576 -14.21046642 179.04821444 -14.06640625 177.22851562 C-13.71628282 172.81856535 -13.35990557 168.40916227 -13 164 C-12.34 164 -11.68 164 -11 164 C-11.02320313 163.01128906 -11.04640625 162.02257812 -11.0703125 161.00390625 C-11.23855271 149.86483922 -10.74007722 138.80119642 -10.0625 127.6875 C-10.01893372 126.95749786 -9.97536743 126.22749573 -9.93048096 125.47537231 C-9.80300625 123.36219276 -9.67025071 121.24942369 -9.53515625 119.13671875 C-9.456604 117.90655029 -9.37805176 116.67638184 -9.29711914 115.40893555 C-9 112 -9 112 -8.49780273 109.02856445 C-7.91503132 105.48306204 -7.69725776 101.99387547 -7.5 98.40625 C-7.45939453 97.69650024 -7.41878906 96.98675049 -7.37695312 96.25549316 C-7.24820848 94.00382366 -7.12358014 91.75195849 -7 89.5 C-6.8370723 86.5310246 -6.66983575 83.56233737 -6.5 80.59375 C-6.4278125 79.28083984 -6.355625 77.96792969 -6.28125 76.61523438 C-6.02721597 73.34983866 -5.53783678 70.22702066 -5 67 C-4.80324751 64.47091068 -4.63926627 61.9391553 -4.5 59.40625 C-4.45939453 58.69650024 -4.41878906 57.98675049 -4.37695312 57.25549316 C-4.24820848 55.00382366 -4.12358014 52.75195849 -4 50.5 C-3.8370723 47.5310246 -3.66983575 44.56233737 -3.5 41.59375 C-3.4278125 40.28083984 -3.355625 38.96792969 -3.28125 37.61523438 C-3.02739588 34.35215123 -2.55603944 31.22179079 -2 28 C-1.87651975 26.44217565 -1.78135476 24.88176846 -1.71875 23.3203125 C-1.68136719 22.47339844 -1.64398438 21.62648437 -1.60546875 20.75390625 C-1.57066406 19.88636719 -1.53585937 19.01882812 -1.5 18.125 C-1.43010411 16.39831257 -1.35722343 14.6717432 -1.28125 12.9453125 C-1.25095703 12.18750488 -1.22066406 11.42969727 -1.18945312 10.64892578 C-0.93465219 7.08630959 -0.44301689 3.54413511 0 0 Z " fill="#CB6CEB" transform="translate(382,158)"/>
<path d="M0 0 C21.98304901 -0.02333962 43.96609598 -0.04098442 65.94915485 -0.05181217 C76.15580471 -0.05697286 86.36244688 -0.06401126 96.5690918 -0.07543945 C105.46311628 -0.0853932 114.35713519 -0.09185508 123.25116509 -0.09408849 C127.96235003 -0.09539442 132.67351903 -0.09847287 137.38469887 -0.10573006 C141.81608287 -0.11250114 146.24744433 -0.11461472 150.67883301 -0.11310768 C152.30786957 -0.11338352 153.93690685 -0.1153822 155.56593895 -0.11920547 C157.78510158 -0.12415969 160.0041784 -0.12299185 162.2233429 -0.12025452 C164.088591 -0.12163721 164.088591 -0.12163721 165.99152088 -0.12304783 C169 0 169 0 172 1 C172.85562817 13.7267425 173.27301657 26.43594734 173.53515625 39.1875 C173.57834462 41.18514481 173.62176062 43.1827847 173.66539001 45.18041992 C173.75554089 49.33866516 173.84357564 53.4969477 173.92993164 57.65527344 C174.03968963 62.93647398 174.15385527 68.21756761 174.26950932 73.49864197 C174.35932354 77.61516297 174.44724326 81.73172276 174.53457451 85.84829712 C174.57597284 87.79359929 174.61782407 89.73889189 174.66017342 91.68417358 C174.71937228 94.42092444 174.77612515 97.15771634 174.83227539 99.89453125 C174.84940582 100.66697174 174.86653625 101.43941223 174.88418579 102.23526001 C175.04855418 110.4937091 175 118.73372894 175 127 C141.34 127 107.68 127 73 127 C73 156.37 73 185.74 73 216 C47.59 216 22.18 216 -4 216 C-4.15681237 181.34446706 -4.15681237 181.34446706 -4.125 169.9453125 C-4.12276428 169.14361759 -4.12052856 168.34192268 -4.1182251 167.51593399 C-4.04837562 146.41600683 -3.64071416 125.32249282 -3.18856049 104.22779083 C-3.12652356 101.32137813 -3.06606293 98.41493633 -3.00592041 95.50848389 C-2.3407412 63.6598342 -1.22463999 31.83161863 0 0 Z " fill="#D076ED" transform="translate(579,158)"/>
<path d="M0 0 C27.72 0 55.44 0 84 0 C88 26 88 26 88 31 C96.91 31 105.82 31 115 31 C116.63440976 34.26881953 116.66984387 37.90501502 117.0625 41.5 C117.19881836 42.64855469 117.19881836 42.64855469 117.33789062 43.8203125 C117.98606163 49.64897808 118 55.05688507 118 61 C135.49 61 152.98 61 171 61 C170.01 52.09 170.01 52.09 169 43 C168.05327869 33.96311475 168.05327869 33.96311475 168 32 C169 31 169 31 171.73828125 30.8671875 C173.50751953 30.87105469 173.50751953 30.87105469 175.3125 30.875 C176.46363281 30.87242187 177.61476563 30.86984375 178.80078125 30.8671875 C184.21100236 31.03830147 189.60577113 31.55048093 195 32 C195 21.77 195 11.54 195 1 C222.72 1 250.44 1 279 1 C278 38 278 38 277 52 C276.82034533 56.50376237 276.66148033 61.00278521 276.53515625 65.5078125 C276.45653655 68.06901522 276.37775511 70.63021298 276.29882812 73.19140625 C276.18047079 77.13486865 276.06384104 81.07836454 275.95043945 85.02197266 C275.83795187 88.89242397 275.71813495 92.76260267 275.59765625 96.6328125 C275.56736832 97.7568045 275.53708038 98.88079651 275.50587463 100.03884888 C275.08114827 113.40690835 273.95554368 126.62238847 273 140 C249.24 140 225.48 140 201 140 C200.25832868 136.29164338 199.83906848 133.24409691 199.71875 129.52734375 C199.68193115 128.47144043 199.6451123 127.41553711 199.60717773 126.32763672 C199.55412476 124.64951904 199.55412476 124.64951904 199.5 122.9375 C199.41892316 120.60543537 199.33687996 118.27340416 199.25390625 115.94140625 C199.21281738 114.77883301 199.17172852 113.61625977 199.12939453 112.41845703 C198.83376694 104.60831072 198.40772217 96.80496728 198 89 C189.75 89 181.5 89 173 89 C173.33 91.64 173.66 94.28 174 97 C174 102.94 174 108.88 174 115 C157.83 115 141.66 115 125 115 C122.75 104.875 122.75 104.875 122.3671875 101.40234375 C122.25286377 100.40062134 122.25286377 100.40062134 122.13623047 99.37866211 C122.05002441 98.57307861 121.96381836 97.76749512 121.875 96.9375 C121.58625 94.318125 121.2975 91.69875 121 89 C112.75 89 104.5 89 96 89 C96.34933594 91.17335938 96.69867188 93.34671875 97.05859375 95.5859375 C97.40164163 97.76041271 97.74160186 99.93535063 98.08129883 102.11035156 C98.31377713 103.5883973 98.5493151 105.06596597 98.78833008 106.54296875 C99.13708322 108.70184654 99.47368918 110.86237259 99.80859375 113.0234375 C100.11494751 114.95582275 100.11494751 114.95582275 100.42749023 116.92724609 C101.29201053 124.5873752 101.57239496 132.30310925 102 140 C78.24 140 54.48 140 30 140 C29.67 137.69 29.34 135.38 29 133 C28.34 133 27.68 133 27 133 C25.0547106 125.42633993 23.66217177 117.95373678 22.77001953 110.18481445 C22.17767208 105.15228383 21.40996982 100.17242842 20.5 95.1875 C20.38140625 94.51162842 20.2628125 93.83575684 20.140625 93.1394043 C19.51780514 89.83109688 18.89929603 87.84894404 17 85 C16.45336914 82.83032227 16.45336914 82.83032227 16.03515625 80.31640625 C15.87660156 79.39520996 15.71804688 78.47401367 15.5546875 77.52490234 C15.39226562 76.54730957 15.22984375 75.5697168 15.0625 74.5625 C13.86668016 67.66771283 12.56166799 60.89335627 10.7734375 54.125 C6.98370914 38.81296623 4.46789998 23.124677 1.5090332 7.63696289 C1.01720439 5.08912452 0.50889684 2.54448422 0 0 Z " fill="#FD4848" transform="translate(401,501)"/>
<path d="M0 0 C24.09 0 48.18 0 73 0 C74.49003116 2.98006231 74.53667993 6.14599367 74.87109375 9.421875 C75.04630733 11.06710046 75.22195349 12.7122799 75.39794922 14.35742188 C75.4935614 15.26000732 75.58917358 16.16259277 75.68768311 17.0925293 C76.26033508 22.42355319 76.86993773 27.75043307 77.47265625 33.078125 C77.86880326 36.6054064 78.26413919 40.13277811 78.65942383 43.66015625 C78.92895768 46.06065643 79.19947142 48.46104679 79.47094727 50.86132812 C82.23630611 75.32552495 82.23630611 75.32552495 82.78686523 85.38964844 C82.99944357 87.99318522 83.46355962 90.44618156 84 93 C84.17219452 95.16473113 84.31566596 97.33185142 84.4375 99.5 C84.73712547 104.03651689 85.17575688 108.45630803 85.9375 112.9375 C87.12560185 120.11011485 87.66038258 127.31205507 88.24755859 134.55273438 C88.75496804 140.64164776 89.48915542 146.61737911 90.52929688 152.640625 C91.07738756 156.55230953 91.33815586 160.43754818 91.55859375 164.37890625 C91.60205933 165.11467896 91.6455249 165.85045166 91.69030762 166.60852051 C91.79609997 168.40553137 91.89840973 170.20274669 92 172 C93.44366188 171.99666908 93.44366188 171.99666908 94.91648865 171.99327087 C103.96660407 171.97303888 113.01671493 171.95802758 122.0668478 171.94818783 C126.72011186 171.94295915 131.37335774 171.93586177 136.02661133 171.92456055 C140.51344546 171.91373114 145.00026204 171.90772305 149.48710823 171.90512276 C151.20280293 171.9032686 152.91849662 171.89964818 154.63418388 171.89426994 C157.02884913 171.88705879 159.42344096 171.88600909 161.81811523 171.88647461 C162.53452682 171.88287933 163.25093842 171.87928406 163.98905945 171.87557983 C168.88594784 171.88594784 168.88594784 171.88594784 170 173 C170.35642906 175.93829336 170.66330222 178.86633826 170.9375 181.8125 C171.56878485 188.24741681 172.37172833 194.57629802 173.52905273 200.94067383 C174.03762063 204.2443878 174.31926419 207.51789232 174.55859375 210.8515625 C174.68512329 212.585271 174.68512329 212.585271 174.81420898 214.35400391 C174.90617554 215.66377197 174.90617554 215.66377197 175 217 C139.06696468 217.14709033 103.14028196 216.9438788 67.20893478 216.59428024 C63.86408365 216.56239594 60.51922016 216.53242771 57.17434692 216.50296021 C51.86136105 216.45583085 46.54845089 216.40353053 41.23555565 216.34712219 C39.24799389 216.32672716 37.26041455 216.30797593 35.27282143 216.29090881 C32.54232245 216.26703639 29.81196069 216.23701874 27.08154297 216.20532227 C26.27069024 216.19956712 25.45983751 216.19381197 24.62441349 216.18788242 C19.11421037 216.11421037 19.11421037 216.11421037 18 215 C17.72135072 212.90717824 17.50631124 210.80585761 17.31640625 208.703125 C17.25661087 208.05009399 17.19681549 207.39706299 17.13520813 206.72424316 C16.93943783 204.56656882 16.7507612 202.40834154 16.5625 200.25 C16.42927155 198.76073571 16.2959701 197.27147796 16.16259766 195.78222656 C15.16966107 184.55760801 14.34610492 173.32597177 13.64672852 162.07910156 C13.57510498 160.9547168 13.50348145 159.83033203 13.4296875 158.671875 C13.37022949 157.6931543 13.31077148 156.71443359 13.24951172 155.70605469 C13.00703485 153.07629575 12.53191597 150.58408552 12 148 C11.82400211 145.39355502 11.67916846 142.79636118 11.5625 140.1875 C11.27921252 134.66309973 10.82460991 129.23361894 10.0625 123.75 C9.12411665 116.8471564 8.62457783 109.95104471 8.1875 103 C7.19658244 87.47778376 5.8177287 71.99172714 4.4375 56.5 C4.32554291 55.23188477 4.21358582 53.96376953 4.09823608 52.65722656 C3.77572192 49.01077332 3.44915013 45.36470837 3.12109375 41.71875 C3.02322571 40.61156616 2.92535767 39.50438232 2.82452393 38.36364746 C2.68406647 36.82142517 2.68406647 36.82142517 2.54077148 35.24804688 C2.46020004 34.35178589 2.3796286 33.4555249 2.2966156 32.53210449 C2.00020796 30.00177529 1.49963153 27.49815766 1 25 C0.67 16.75 0.34 8.5 0 0 Z " fill="#C867EA" transform="translate(972,159)"/>
<path d="M0 0 C64.35 0 128.7 0 195 0 C193.70827372 7.75035767 192.34025095 15.18606903 190.375 22.75 C190.14554688 23.64976562 189.91609375 24.54953125 189.6796875 25.4765625 C189.12420158 27.6522157 188.56430467 29.82662086 188 32 C177.75757145 32.02345838 167.51514958 32.04108193 157.27269936 32.05181217 C152.51365822 32.05696933 147.75463582 32.06393169 142.99560547 32.07543945 C121.97327051 32.12498007 100.9994408 32.11492668 80 31 C79.91039505 31.78281845 79.8207901 32.5656369 79.72846985 33.37217712 C77.00133941 57.18692111 77.00133941 57.18692111 75.9375 65.9375 C75.80214844 67.06027344 75.66679688 68.18304687 75.52734375 69.33984375 C74.82019674 74.24796781 73.88705785 79.1211818 73 84 C71.68 94.23 70.36 104.46 69 115 C102 115 135 115 169 115 C167 126 167 126 165 131 C164.67 133.97 164.34 136.94 164 140 C107.24 140 50.48 140 -8 140 C-7.67 131.09 -7.34 122.18 -7 113 C-6.34 113 -5.68 113 -5 113 C-5.01015137 111.94393555 -5.02030273 110.88787109 -5.03076172 109.79980469 C-5.0944352 100.24321004 -4.7815577 90.78790489 -4.125 81.25 C-2.94191897 63.1527458 -2.31520641 45.03711422 -1.69775391 26.91308594 C-1.65849289 25.79561478 -1.61923187 24.67814362 -1.57878113 23.52680969 C-1.50521059 21.42859608 -1.43446109 19.33028078 -1.36714172 17.2318573 C-1.33356064 16.27999039 -1.29997955 15.32812347 -1.26538086 14.34741211 C-1.2381041 13.52840927 -1.21082733 12.70940643 -1.182724 11.86558533 C-0.92978497 7.89884656 -0.43894267 3.95048401 0 0 Z " fill="#FC4646" transform="translate(707,502)"/>
<path d="M0 0 C1.40897804 0.00333092 1.40897804 0.00333092 2.84642029 0.00672913 C3.90744461 0.00680466 4.96846893 0.00688019 6.06164551 0.00695801 C7.21579453 0.01211929 8.36994354 0.01728058 9.55906677 0.02259827 C10.73404221 0.02401321 11.90901764 0.02542816 13.11959839 0.02688599 C16.88981116 0.0325046 20.65996556 0.04506026 24.43016052 0.05775452 C26.97898779 0.06276712 29.52781599 0.06733044 32.0766449 0.07142639 C38.34033685 0.08248007 44.60399452 0.0992363 50.86766052 0.12025452 C51.77783892 10.27211612 52.15024414 20.39382387 52.40281677 30.57728577 C52.44121639 32.03347038 52.47991265 33.4896472 52.51890564 34.94581604 C52.65956389 40.27470241 52.79453617 45.60373765 52.93016052 50.93275452 C53.23953552 62.87462952 53.54891052 74.81650452 53.86766052 87.12025452 C98.74766052 87.12025452 143.62766052 87.12025452 189.86766052 87.12025452 C192.86766052 123.12025452 192.86766052 123.12025452 192.86766052 132.12025452 C128.51766052 132.12025452 64.16766052 132.12025452 -2.13233948 132.12025452 C-3.57781122 12.14610028 -3.57781122 12.14610028 -3.13233948 1.12025452 C-2.13233948 0.12025452 -2.13233948 0.12025452 0 0 Z " fill="#462828" transform="translate(709.1323394775391,369.87974548339844)"/>
<path d="M0 0 C0.33 0 0.66 0 1 0 C0.99777939 0.80749695 0.99555878 1.6149939 0.99327087 2.44696045 C0.97302153 10.15198934 0.95790255 17.85700488 0.94818783 25.56205368 C0.94302513 29.52087309 0.93605185 33.47967006 0.92456055 37.43847656 C0.86632581 58.07439075 0.80945664 78.64308238 3.0625 99.1875 C3.24519412 100.86802676 3.42362334 102.54902298 3.59765625 104.23046875 C3.71379272 105.28850708 3.71379272 105.28850708 3.83227539 106.36791992 C4.07887875 110.23783378 4 114.12223692 4 118 C-53.42 118 -110.84 118 -170 118 C-171.32 111.07 -172.64 104.14 -174 97 C-174.66 94.69 -175.32 92.38 -176 90 C-176.36006423 88.32845181 -176.69579905 86.65136148 -177 84.96875 C-177.165 84.07542969 -177.33 83.18210937 -177.5 82.26171875 C-177.83333333 80.42057292 -178.16666667 78.57942708 -178.5 76.73828125 C-179.21116837 72.88797122 -179.95114188 69.16525541 -181.0625 65.40625 C-182 62 -182 62 -183 53 C-122.94 53 -62.88 53 -1 53 C-1 41.12 -1 29.24 -1 17 C-0.67 11.39 -0.34 5.78 0 0 Z " fill="#411A50" transform="translate(549,321)"/>
<path d="M0 0 C14.93749077 -0.03059412 29.8749822 -0.05097418 44.8125 -0.0625 C45.91408825 -0.06335602 47.0156765 -0.06421204 48.15064621 -0.06509399 C84.11198041 -0.0897876 120.04788293 0.1486872 156 1 C155.2877124 2.82072021 155.2877124 2.82072021 154.56103516 4.67822266 C153.92865366 6.29848025 153.29633266 7.91876146 152.6640625 9.5390625 C152.35218994 10.33578369 152.04031738 11.13250488 151.71899414 11.95336914 C149.85492193 16.73448226 148.07078903 21.53162361 146.375 26.375 C144.14506671 32.69675264 141.60457381 38.82170864 139 45 C136.36 51.6 133.72 58.2 131 65 C82.16 65 33.32 65 -17 65 C-15.87489884 54.87408958 -15.87489884 54.87408958 -14.83251953 51.08203125 C-14.60202911 50.23084717 -14.3715387 49.37966309 -14.13406372 48.50268555 C-13.88615082 47.61492432 -13.63823792 46.72716309 -13.3828125 45.8125 C-13.12498993 44.86995361 -12.86716736 43.92740723 -12.60153198 42.95629883 C-12.05834384 40.97552262 -11.5119176 38.99563181 -10.96240234 37.01660156 C-10.12788625 34.01039724 -9.30331767 31.0016039 -8.48046875 27.9921875 C-7.94849675 26.0571321 -7.41596326 24.12223096 -6.8828125 22.1875 C-6.51701584 20.85585815 -6.51701584 20.85585815 -6.14382935 19.49731445 C-4.59668395 13.93593443 -2.87180167 8.46020208 -1 3 C-0.67 2.01 -0.34 1.02 0 0 Z " fill="#411A50" transform="translate(991,375)"/>
<path d="M0 0 C33.66 0 67.32 0 102 0 C102 0.33 102 0.66 102 1 C68.67 1 35.34 1 1 1 C1.020625 14.365 1.04125 27.73 1.0625 41.5 C1.09085532 79.01684854 0.70944256 116.48822446 0 154 C-24.75 154 -49.5 154 -75 154 C-75.495 144.079375 -75.99 134.15875 -76.5 123.9375 C-76.65662109 120.85784912 -76.81324219 117.77819824 -76.97460938 114.60522461 C-77.74331751 99.06046327 -78.21194251 83.56698108 -78 68 C-77.67 68 -77.34 68 -77 68 C-77 74.93 -77 81.86 -77 89 C-51.59 89 -26.18 89 0 89 C0 59.63 0 30.26 0 0 Z " fill="#421A51" transform="translate(652,285)"/>
<path d="M0 0 C2.83203125 0.03255208 5.6640625 0.06510417 8.49609375 0.09765625 C9.26337208 11.57677612 9.68562256 23.01654638 9.8125 34.51953125 C9.83321615 36.15537867 9.85421451 37.79122253 9.87547302 39.42706299 C9.91902459 42.8423011 9.95995052 46.25755656 9.9987793 49.67285156 C10.04722 53.92522482 10.10099556 58.17750759 10.15675449 62.4297905 C10.2006615 65.81282367 10.24208614 69.19588423 10.28285027 72.5789566 C10.30180639 74.13930211 10.32129206 75.69964134 10.34146309 77.25997162 C10.573693 95.53980833 10.49609375 113.81453741 10.49609375 132.09765625 C-17.22390625 132.09765625 -44.94390625 132.09765625 -73.50390625 132.09765625 C-73.50390625 116.91765625 -73.50390625 101.73765625 -73.50390625 86.09765625 C-51.06390625 86.09765625 -28.62390625 86.09765625 -5.50390625 86.09765625 C-5.37113281 79.97332031 -5.23835937 73.84898437 -5.1015625 67.5390625 C-5.01551016 63.66990826 -4.92917199 59.80076467 -4.84179688 55.93164062 C-4.70299779 49.78415617 -4.56528428 43.63666031 -4.43383789 37.48901367 C-4.32785241 32.53524235 -4.21716336 27.58159685 -4.10314751 22.62800407 C-4.06038679 20.7337207 -4.01934998 18.83939763 -3.98002815 16.94503975 C-3.92486081 14.30120742 -3.86368386 11.65757987 -3.80102539 9.01391602 C-3.78591919 8.22269852 -3.77081299 7.43148102 -3.75524902 6.61628723 C-3.5907353 0.14004428 -3.5907353 0.14004428 0 0 Z " fill="#492A2A" transform="translate(669.50390625,369.90234375)"/>
<path d="M0 0 C0.33 0 0.66 0 1 0 C1 1.65 1 3.3 1 5 C26.41 5 51.82 5 78 5 C78.33 4.01 78.66 3.02 79 2 C79.103125 3.155 79.20625 4.31 79.3125 5.5 C79.76538851 9.07347646 80.70836577 12.15117302 82.0546875 15.50390625 C85.64504319 24.98422561 88.28642136 34.88151943 91.11352539 44.61157227 C92.17838918 48.26211245 93.27418653 51.89923228 94.42578125 55.5234375 C94.6578125 56.25369141 94.88984375 56.98394531 95.12890625 57.73632812 C95.57421578 59.12951078 96.02325103 60.52150979 96.4765625 61.91210938 C97.38093353 64.73899817 98 67.00948629 98 70 C73.58 70 49.16 70 24 70 C20.71086423 61.77716058 17.61653262 54.02160108 14.92578125 45.68359375 C14.09179734 43.26609609 13.14430074 41.00195018 12.0625 38.6875 C9.92995736 34.09626114 8.40839351 29.33092131 6.86450195 24.51953125 C5.70159133 20.94384017 4.40434231 17.56211854 2.75 14.1875 C0.575766 9.59355396 0.21010266 5.0319586 0 0 Z " fill="#411A50" transform="translate(157,368)"/>
<path d="M0 0 C0.33 0 0.66 0 1 0 C1 4.29 1 8.58 1 13 C26.41 13 51.82 13 78 13 C78 10.03 78 7.06 78 4 C78.33 4 78.66 4 79 4 C79.77401821 14.38474426 77.62170178 24.01972969 75.56884766 34.12207031 C74.61193993 38.96328417 73.77399068 43.82426806 72.9375 48.6875 C72.78764648 49.55157471 72.63779297 50.41564941 72.48339844 51.3059082 C70.94932671 60.19744705 69.48339328 69.09964029 68 78 C43.58 78 19.16 78 -6 78 C-4.87934853 60.06957655 -4.87934853 60.06957655 -4.0625 53.4765625 C-3.88782 52.02057086 -3.71368605 50.56451364 -3.54003906 49.10839844 C-3.4514563 48.37552612 -3.36287354 47.64265381 -3.27160645 46.88757324 C-1.39498115 31.25465194 -0.24577635 15.75511155 0 0 Z " fill="#411A50" transform="translate(782,362)"/>
<path d="M0 0 C0.33 0 0.66 0 1 0 C1.19543224 5.56981893 0.56626924 9.60213865 -1 15 C-1.61209727 17.3710032 -2.21321719 19.74486099 -2.8046875 22.12109375 C-2.96993927 22.78351578 -3.13519104 23.44593781 -3.30545044 24.12843323 C-3.82975269 26.23117856 -4.35242102 28.33432581 -4.875 30.4375 C-5.21733676 31.81187665 -5.55978397 33.18622579 -5.90234375 34.56054688 C-6.41674455 36.62441728 -6.93087082 38.68835365 -7.44403076 40.75253296 C-8.31729799 44.26486893 -9.19441293 47.77616646 -10.07910156 51.28564453 C-10.25579376 51.98794693 -10.43248596 52.69024933 -10.61453247 53.41383362 C-11.10039868 55.34389515 -11.58750845 57.27364351 -12.07470703 59.20336914 C-13.11077195 63.45451573 -14.05080399 67.72861794 -15 72 C-39.42 72 -63.84 72 -89 72 C-89 62.99796748 -89 62.99796748 -88.1875 59.3359375 C-88.00445313 58.49256836 -87.82140625 57.64919922 -87.6328125 56.78027344 C-87.42398438 55.8627832 -87.21515625 54.94529297 -87 54 C-86.77054688 52.96649414 -86.54109375 51.93298828 -86.3046875 50.86816406 C-85.28567022 46.29733525 -84.25191578 41.72993755 -83.2109375 37.1640625 C-81.77318797 30.77406461 -80.50367263 24.40472328 -79.52734375 17.92724609 C-78.86450979 14.24790385 -77.90673649 10.62694598 -77 7 C-51.59 7 -26.18 7 0 7 C0 4.69 0 2.38 0 0 Z " fill="#411A50" transform="translate(964,368)"/>
<path d="M0 0 C2.25294882 3.37942323 2.99464793 6.52350861 3.875 10.4140625 C4.12999268 11.50767593 4.12999268 11.50767593 4.39013672 12.62338257 C4.93252609 14.95596194 5.4663251 17.29041316 6 19.625 C6.35882088 21.17330561 6.71819016 22.72148423 7.078125 24.26953125 C9.35265432 34.07304097 11.60639227 43.87728875 13.5625 53.75 C13.81128906 55.00296875 14.06007813 56.2559375 14.31640625 57.546875 C14.54199219 58.68640625 14.76757812 59.8259375 15 61 C15.495 63.475 15.495 63.475 16 66 C-8.75 65.67 -33.5 65.34 -59 65 C-60.98 58.07 -62.96 51.14 -65 44 C-66.9102306 38.31245385 -66.9102306 38.31245385 -68.84375 32.6328125 C-70.32636473 27.9745973 -71.481232 23.2667767 -72.61279297 18.51342773 C-73.46152766 14.99279915 -74.41344659 11.61636583 -75.75 8.25 C-77 5 -77 5 -77 1 C-66.9952642 0.80005638 -56.99037606 0.616306 -46.98496437 0.45341206 C-42.33939373 0.3772665 -37.69406354 0.29547686 -33.04882812 0.20092773 C-28.56862963 0.10994312 -24.08840205 0.03360241 -19.60776901 -0.03244972 C-17.89559956 -0.06029084 -16.18350858 -0.09347084 -14.47154617 -0.13199425 C-12.07948654 -0.18492282 -9.68785521 -0.21911565 -7.29541016 -0.2487793 C-6.22618568 -0.27898415 -6.22618568 -0.27898415 -5.13536072 -0.30979919 C-3.16372681 -0.32279968 -3.16372681 -0.32279968 0 0 Z " fill="#40194F" transform="translate(339,373)"/>
<path d="M0 0 C4.39656173 -0.02465504 8.7930872 -0.04283842 13.18969727 -0.05493164 C14.68644918 -0.05997121 16.18319616 -0.06680287 17.67993164 -0.07543945 C19.82699807 -0.08752159 21.97399962 -0.09323191 24.12109375 -0.09765625 C26.06133423 -0.10551147 26.06133423 -0.10551147 28.04077148 -0.11352539 C31 0 31 0 32 1 C32.08748207 2.92667507 32.10697334 4.85651861 32.09765625 6.78515625 C32.09515869 7.83840088 32.09266113 8.89164551 32.09008789 9.97680664 C32.08098389 11.32508545 32.07187988 12.67336426 32.0625 14.0625 C32.041875 18.331875 32.02125 22.60125 32 27 C40.58 27 49.16 27 58 27 C57.34322942 19.56566885 57.34322942 19.56566885 56.68359375 12.1315918 C56.60238281 11.20515869 56.52117188 10.27872559 56.4375 9.32421875 C56.35371094 8.37635498 56.26992188 7.42849121 56.18359375 6.4519043 C56 4 56 4 56 1 C66.23 1 76.46 1 87 1 C87.9731681 3.9195043 88.1929546 6.05444951 88.31640625 9.10546875 C88.35451416 9.99129639 88.39262207 10.87712402 88.43188477 11.78979492 C88.49653931 13.47165894 88.49653931 13.47165894 88.5625 15.1875 C88.706875 18.755625 88.85125 22.32375 89 26 C80.75 26 72.5 26 64 26 C64 29.63 64 33.26 64 37 C68.29 37 72.58 37 77 37 C77.87883846 39.63651537 78.17159799 41.38462303 78.29711914 44.10424805 C78.33708511 44.92487228 78.37705109 45.74549652 78.41822815 46.59098816 C78.45681442 47.47232925 78.4954007 48.35367035 78.53515625 49.26171875 C78.59962196 50.62040825 78.59962196 50.62040825 78.66539001 52.00654602 C78.80175653 54.9000268 78.93219803 57.79374038 79.0625 60.6875 C79.15390683 62.64910676 79.24569896 64.6106956 79.33789062 66.57226562 C79.56379091 71.381296 79.78167975 76.19059557 80 81 C73.73 81 67.46 81 61 81 C59.19121612 75.57364835 59.94799216 69.66885438 60 64 C51.75 64 43.5 64 35 64 C35 69.28 35 74.56 35 80 C29.06 80 23.12 80 17 80 C14.50955434 65.67993744 14.81783009 51.50274886 15 37 C18.96 37 22.92 37 27 37 C27 33.37 27 29.74 27 26 C18.42 26 9.84 26 1 26 C0.23313612 17.27692333 -0.05952472 8.75922784 0 0 Z " fill="#030204" transform="translate(820,200)"/>
<path d="M0 0 C55.77 0 111.54 0 169 0 C169 0.66 169 1.32 169 2 C161.31637948 3.81554864 153.62360896 4.58366772 145.76983643 5.20465088 C130.85532318 6.38920472 115.99365812 7.93005304 101.13134766 9.64208984 C99.70477047 9.80581978 98.27817587 9.96939814 96.8515625 10.1328125 C96.17421051 10.21079071 95.49685852 10.28876892 94.79898071 10.36911011 C89.65135578 10.95175155 84.50125564 11.39184718 79.33349609 11.74951172 C76.84704204 11.93255983 76.84704204 11.93255983 74 13 C72.62782346 13.18428393 71.25020865 13.32982075 69.87084961 13.44897461 C68.62826637 13.55930275 68.62826637 13.55930275 67.36058044 13.67185974 C66.02000328 13.78594933 66.02000328 13.78594933 64.65234375 13.90234375 C62.74803894 14.07217672 60.84374233 14.24210159 58.93945312 14.41210938 C55.94685406 14.67496124 52.95411601 14.93606206 49.96118164 15.19506836 C47.06613158 15.44694756 44.17174194 15.70559566 41.27734375 15.96484375 C39.95802101 16.07589699 39.95802101 16.07589699 38.61204529 16.18919373 C32.62901502 16.72881598 26.87455784 17.7391209 21 19 C20.34 24.61 19.68 30.22 19 36 C18.34 36 17.68 36 17 36 C16.96261719 37.16015625 16.92523437 38.3203125 16.88671875 39.515625 C16.56380292 47.69118683 15.9720217 55.20329846 13.6953125 63.10546875 C12.64094809 67.49470486 12.43743537 71.88521186 12.2109375 76.3828125 C12 79 12 79 11 81 C10.72733437 83.44429919 10.50394193 85.87314956 10.31640625 88.32421875 C10.25597641 89.06267532 10.19554657 89.8011319 10.13328552 90.56196594 C9.93910097 92.93684595 9.75019021 95.31209847 9.5625 97.6875 C8.76558293 107.76529016 7.82832561 117.75945078 6.42602539 127.77368164 C5.91436639 131.64850901 5.63305202 135.47228099 5.4375 139.375 C5.10687023 145.89312977 5.10687023 145.89312977 4 147 C3.78982984 149.30895269 3.63160059 151.62273969 3.5 153.9375 C3.11021814 160.77956372 3.11021814 160.77956372 2 163 C1.34 163 0.68 163 0 163 C-0.33 169.6 -0.66 176.2 -1 183 C-1.66 183 -2.32 183 -3 183 C-3.17666892 110.56934775 -3.17666892 110.56934775 -2.84765625 88.08984375 C-2.83528427 87.24176651 -2.82291229 86.39368927 -2.81016541 85.51991272 C-2.31285933 57.00729811 -1.03595482 28.48875761 0 0 Z " fill="#F5EBF6" transform="translate(579,158)"/>
<path d="M0 0 C27.06 0 54.12 0 82 0 C82 34 82 34 81 45 C53.61 45 26.22 45 -2 45 C-2 35.96090784 -1.97675641 27.0147142 -1.5625 18 C-1.52318359 17.02933594 -1.48386719 16.05867188 -1.44335938 15.05859375 C-1.40146484 14.11113281 -1.35957031 13.16367187 -1.31640625 12.1875 C-1.27974854 11.35605469 -1.24309082 10.52460938 -1.20532227 9.66796875 C-0.95612907 6.42993872 -0.45928065 3.21496454 0 0 Z " fill="#4F2D2D" transform="translate(404,456)"/>
<path d="M0 0 C18.17857254 -0.02353179 36.35714103 -0.04107748 54.53572559 -0.05181217 C62.97947008 -0.05693259 71.42320501 -0.06389242 79.86694336 -0.07543945 C87.240595 -0.08551816 94.61423971 -0.09188421 101.98789805 -0.09408849 C105.87936462 -0.09537362 109.77081139 -0.09831549 113.6622715 -0.10573006 C132.46546669 -0.14020258 151.21357945 0.12619174 170 1 C170 1.33 170 1.66 170 2 C168.86111328 2.09087891 168.86111328 2.09087891 167.69921875 2.18359375 C166.70535156 2.26738281 165.71148438 2.35117188 164.6875 2.4375 C163.70136719 2.51871094 162.71523438 2.59992188 161.69921875 2.68359375 C158.90624401 2.91812559 158.90624401 2.91812559 156 4 C153.04488082 4.33988768 150.09872718 4.63809103 147.13671875 4.90234375 C146.24527664 4.98433517 145.35383453 5.0663266 144.43537903 5.15080261 C141.51978321 5.41723544 138.60369407 5.67770291 135.6875 5.9375 C134.19863281 6.0719754 134.19863281 6.0719754 132.6796875 6.20916748 C119.08574653 7.43557499 105.49592956 8.5012217 91.87329102 9.35131836 C79.31874965 10.14253761 66.84472709 11.3442686 54.375 13 C42.96499137 14.48212483 31.47317062 15.18311445 20 16 C20.01522705 16.6820752 20.0304541 17.36415039 20.04614258 18.06689453 C20.14277357 25.98537669 19.61094816 33.78331449 18.88909912 41.66149902 C17.49132084 57.0087067 16.37344373 72.37212221 15.375 87.75 C15.27825989 89.23879166 15.27825989 89.23879166 15.17956543 90.75765991 C14.42468103 102.46352056 13.75250217 114.1634224 13.34326172 125.88720703 C12.94869471 136.63965365 12.06666956 147.35770136 11.22314453 158.08251953 C10.85092192 162.94910616 10.54411082 167.8197394 10.24609375 172.69140625 C10 175 10 175 9 177 C8.77377919 178.70363822 8.59111527 180.41328701 8.4375 182.125 C8.35371094 183.03507813 8.26992188 183.94515625 8.18359375 184.8828125 C8.12300781 185.58148438 8.06242188 186.28015625 8 187 C7.34 187 6.68 187 6 187 C5.97494385 186.2251123 5.9498877 185.45022461 5.92407227 184.65185547 C5.80631989 181.05947348 5.68442516 177.4672427 5.5625 173.875 C5.52318359 172.65683594 5.48386719 171.43867188 5.44335938 170.18359375 C5.38051758 168.35634766 5.38051758 168.35634766 5.31640625 166.4921875 C5.27974854 165.39245605 5.24309082 164.29272461 5.20532227 163.15966797 C5.06494741 159.82225104 4.8045195 156.50095507 4.54101562 153.17114258 C3.70813204 141.72051611 3.41611733 130.24201117 3.02734375 118.76953125 C2.93918603 116.20863018 2.85093247 113.64773242 2.7625885 111.08683777 C2.57842851 105.72860638 2.39631706 100.37031054 2.21557617 95.01196289 C2.00920148 88.89542627 1.797549 82.7790885 1.58328813 76.6628235 C1.37465728 70.70002798 1.17130318 64.73706386 0.96978951 58.77402306 C0.8847446 56.27593684 0.79827707 53.77789856 0.71021843 51.27991676 C0.10987711 34.180208 -0.11206512 17.11013481 0 0 Z " fill="#FBF0FC" transform="translate(776,159)"/>
<path d="M0 0 C24.42 0 48.84 0 74 0 C74 0.66 74 1.32 74 2 C70.1255232 3.16996304 66.25050004 4.33809884 62.37490845 5.50436401 C61.00308185 5.91718474 59.6313164 6.33020872 58.25961304 6.74343872 C48.60543021 9.64994982 38.93810119 12.49482273 29.21020508 15.14697266 C28.42540771 15.36530762 27.64061035 15.58364258 26.83203125 15.80859375 C26.15889893 15.99220459 25.4857666 16.17581543 24.79223633 16.36499023 C22.69725504 17.02490487 22.69725504 17.02490487 20 19 C19.14643884 20.98825863 19.14643884 20.98825863 18.6484375 23.32421875 C18.43703125 24.18853516 18.225625 25.05285156 18.0078125 25.94335938 C17.79898438 26.84892578 17.59015625 27.75449219 17.375 28.6875 C17.1584375 29.57373047 16.941875 30.45996094 16.71875 31.37304688 C15.79730641 35.21523915 15.00243084 38.98279446 14.44921875 42.8984375 C13.89225466 46.74391128 12.64067237 49.50465452 11 53 C10.34 53 9.68 53 9 53 C8.97873047 54.54494141 8.97873047 54.54494141 8.95703125 56.12109375 C8.64428676 67.08531869 6.51599071 76.63366578 3 87 C2.34 87 1.68 87 1 87 C1.04125 88.175625 1.0825 89.35125 1.125 90.5625 C1.22580841 93.43553969 0.86621895 95.4615999 0.0546875 98.26171875 C-1.26897727 102.95337498 -1.73436138 107.55425991 -2.2109375 112.390625 C-2.60522421 115.9799937 -2.95778877 117.93668315 -5 121 C-5.44111565 122.88154883 -5.8109267 124.78062638 -6.125 126.6875 C-6.29257813 127.68136719 -6.46015625 128.67523438 -6.6328125 129.69921875 C-6.75398437 130.45847656 -6.87515625 131.21773437 -7 132 C-7.66 132 -8.32 132 -9 132 C-9.02578125 132.58523438 -9.0515625 133.17046875 -9.078125 133.7734375 C-9.84823376 145.43008372 -12.7613038 156.80938303 -16 168 C-16.24621094 169.00804687 -16.49242187 170.01609375 -16.74609375 171.0546875 C-16.97425781 171.98539063 -17.20242187 172.91609375 -17.4375 173.875 C-17.66308594 174.82117188 -17.88867188 175.76734375 -18.12109375 176.7421875 C-18.41113281 177.48726562 -18.70117188 178.23234375 -19 179 C-19.99 179.33 -20.98 179.66 -22 180 C-21.71087844 156.60743768 -18.27760027 133.29876045 -14.4375 110.25 C-13.04150832 101.86353217 -12.10188407 93.43465699 -11.14779663 84.9887085 C-7.91941587 56.60407618 -3.83396115 28.30365438 0 0 Z " fill="#F6E8F7" transform="translate(185,157)"/>
<path d="M0 0 C64.35 0 128.7 0 195 0 C194.67 0.99 194.34 1.98 194 3 C193.67 2.67 193.34 2.34 193 2 C190.87910627 2.05298141 188.76015151 2.18345928 186.64453125 2.34204102 C185.63735314 2.41533442 185.63735314 2.41533442 184.609828 2.49010849 C182.34364742 2.6563205 180.07811553 2.83017369 177.8125 3.00390625 C176.19577975 3.12394027 174.57902363 3.24349198 172.9622345 3.3625946 C168.55994282 3.68825136 164.15816962 4.02048127 159.75647354 4.3540802 C155.15779175 4.70179126 150.55874324 5.04457814 145.9597168 5.38769531 C140.21774031 5.81631587 134.47580616 6.24546953 128.73405457 6.67709351 C116.03123662 7.63105823 103.3266522 8.55715385 90.62039566 9.46410942 C85.0395546 9.86318365 79.45900977 10.26638057 73.87846565 10.66958332 C69.41002541 10.99211049 64.94143246 11.31210077 60.47241211 11.62649536 C56.26835169 11.92238246 52.06485187 12.22526385 47.86166954 12.53336525 C46.32280771 12.64490298 44.78375754 12.75387757 43.24451637 12.86005211 C41.13876706 13.0056318 39.03388139 13.16040953 36.92895508 13.31738281 C35.16483025 13.44345917 35.16483025 13.44345917 33.36506653 13.57208252 C29.71376036 14.03639956 26.50753325 14.90513378 23 16 C22.72285156 17.27617188 22.44570313 18.55234375 22.16015625 19.8671875 C21.79441043 21.53648893 21.42851738 23.2057581 21.0625 24.875 C20.88009766 25.71675781 20.69769531 26.55851563 20.50976562 27.42578125 C20.33251953 28.23144531 20.15527344 29.03710938 19.97265625 29.8671875 C19.72914429 30.98262939 19.72914429 30.98262939 19.48071289 32.12060547 C19 34 19 34 18 36 C17.34 36 16.68 36 16 36 C16 37.32 16 38.64 16 40 C15.34 40 14.68 40 14 40 C14 41.98 14 43.96 14 46 C13.34 46 12.68 46 12 46 C11.96261719 46.58265625 11.92523437 47.1653125 11.88671875 47.765625 C11.40371335 53.78898651 10.24448199 59.38304356 8.6953125 65.21875 C8.11137281 67.55450874 7.67793517 69.80310705 7.375 72.1875 C7 75 7 75 6 76 C5.52792951 78.72718431 5.09733966 81.45089133 4.6875 84.1875 C3.57389434 91.30000169 2.03237714 98.01350046 -0.1328125 104.88671875 C-1.0673383 108.24175056 -1.5158119 111.55546887 -2 115 C-2.495 115.495 -2.495 115.495 -3 116 C-3.27953219 118.0587768 -3.44734351 120.11728432 -3.62109375 122.1875 C-3.74613281 122.785625 -3.87117187 123.38375 -4 124 C-4.99 124.495 -4.99 124.495 -6 125 C-6.28155129 114.40769923 -5.50618714 103.88582808 -4.83197021 93.32147217 C-3.40854275 70.90805148 -2.3938284 48.49674415 -1.64697266 26.05102539 C-1.61013367 24.97455246 -1.57329468 23.89807953 -1.53533936 22.78898621 C-1.46748431 20.79203482 -1.4026497 18.79497723 -1.34161377 16.79780579 C-1.31122009 15.90014999 -1.28082642 15.0024942 -1.24951172 14.07763672 C-1.22525116 13.30990936 -1.2009906 12.54218201 -1.17599487 11.75119019 C-0.92468063 7.82259127 -0.43472795 3.91255159 0 0 Z " fill="#FAD6D6" transform="translate(707,502)"/>
<path d="M0 0 C23.76 0 47.52 0 72 0 C71 2 71 2 69.20922852 2.73022461 C68.44022217 2.95202393 67.67121582 3.17382324 66.87890625 3.40234375 C65.59790039 3.77842773 65.59790039 3.77842773 64.29101562 4.16210938 C63.39060547 4.41798828 62.49019531 4.67386719 61.5625 4.9375 C60.69689453 5.18951172 59.83128906 5.44152344 58.93945312 5.70117188 C57.18316685 6.21249573 55.42615864 6.72134603 53.66845703 7.2277832 C50.97219912 8.00804521 48.27992403 8.80026725 45.58984375 9.6015625 C44.80343506 9.83568848 44.01702637 10.06981445 43.20678711 10.31103516 C37.94692663 11.95317768 32.86206059 14.05030962 27.75 16.09765625 C26.85796875 16.45480713 25.9659375 16.81195801 25.046875 17.17993164 C24.37140625 17.4505542 23.6959375 17.72117676 23 18 C23.00785522 18.88014771 23.00785522 18.88014771 23.01586914 19.77807617 C23.09661124 30.30623313 23.09603411 40.79858102 22.5 51.3125 C22.09207198 58.69799891 21.95320714 66.04126694 22 73.4375 C22.14118438 99.14299951 21.35886691 124.87283629 20.5 150.5625 C20.46463135 151.67802246 20.4292627 152.79354492 20.39282227 153.94287109 C20.35600342 154.9530127 20.31918457 155.9631543 20.28125 157.00390625 C20.25095703 157.85799072 20.22066406 158.7120752 20.18945312 159.59204102 C19.99013692 162.12536022 19.51805166 164.51425868 19 167 C18.78301513 169.43505237 18.59709255 171.87301384 18.4375 174.3125 C18.31181641 176.19388672 18.31181641 176.19388672 18.18359375 178.11328125 C18.12300781 179.06589844 18.06242188 180.01851562 18 181 C17.34 180.67 16.68 180.34 16 180 C15.55852091 177.64544485 15.24430413 175.37717092 15 173 C14.83463773 171.52994766 14.66927307 170.05989558 14.50390625 168.58984375 C14.42156738 167.82913574 14.33922852 167.06842773 14.25439453 166.28466797 C14.01165075 164.1046331 13.74382678 161.92956879 13.46484375 159.75390625 C12.47235536 151.92985024 11.78578339 144.15510753 11.39208984 136.27856445 C11.14837744 131.72943909 10.68697307 127.26653781 10.0625 122.75 C9.12464267 115.84706283 8.62458086 108.95109283 8.1875 102 C7.19658244 86.47778376 5.8177287 70.99172714 4.4375 55.5 C4.32554291 54.23188477 4.21358582 52.96376953 4.09823608 51.65722656 C3.77572192 48.01077332 3.44915013 44.36470837 3.12109375 40.71875 C3.02322571 39.61156616 2.92535767 38.50438232 2.82452393 37.36364746 C2.68406647 35.82142517 2.68406647 35.82142517 2.54077148 34.24804688 C2.46020004 33.35178589 2.3796286 32.4555249 2.2966156 31.53210449 C2.00020796 29.00177529 1.49963153 26.49815766 1 24 C0.67 16.08 0.34 8.16 0 0 Z " fill="#FBF0FC" transform="translate(972,160)"/>
<path d="M0 0 C24.09 0 48.18 0 73 0 C73 0.66 73 1.32 73 2 C72.3201001 2.19634033 71.6402002 2.39268066 70.93969727 2.5949707 C67.81341748 3.49893282 64.68795712 4.40569779 61.5625 5.3125 C60.49322266 5.62123047 59.42394531 5.92996094 58.32226562 6.24804688 C52.82100918 7.84627122 47.35424409 9.49560134 41.93603516 11.35742188 C36.63128652 13.11809002 31.63886177 14.28194309 26 14 C26 14.66 26 15.32 26 16 C25.20078125 16.21527344 24.4015625 16.43054688 23.578125 16.65234375 C20.75771287 17.75168916 20.75771287 17.75168916 20.109375 20.56640625 C19.99078125 21.55511719 19.8721875 22.54382813 19.75 23.5625 C19.04932735 28.95067265 19.04932735 28.95067265 18 30 C17.71210963 32.93830968 17.55140599 35.87704227 17.37890625 38.82421875 C17 42 17 42 16.03662109 44.82617188 C15.03060363 47.90630071 14.47717242 50.75247853 14.03515625 53.95703125 C13.87466797 55.07013672 13.71417969 56.18324219 13.54882812 57.33007812 C13.22628919 59.63966413 12.90595308 61.9495589 12.58789062 64.25976562 C11.20556557 73.80386649 11.20556557 73.80386649 9.53125 78.3984375 C7.25799864 84.66545141 6.46776357 91.25066358 5.4375 97.8125 C5.22931641 99.10220703 5.02113281 100.39191406 4.80664062 101.72070312 C4.39597476 104.26580163 3.98819104 106.81136711 3.58349609 109.35742188 C2.87945621 113.75251603 2.14401964 118.14192848 1.40063477 122.53051758 C1.05856983 124.63898001 0.77335056 126.75653317 0.5 128.875 C0 132 0 132 -0.95068359 134.74853516 C-2.06854907 138.21240961 -2.70578983 141.55670577 -3.2890625 145.1484375 C-3.39721283 145.80582916 -3.50536316 146.46322083 -3.61679077 147.14053345 C-3.9574807 149.21796608 -4.29134823 151.29642663 -4.625 153.375 C-4.8563188 154.79304256 -5.08808533 156.21101217 -5.3203125 157.62890625 C-5.88538535 161.08510948 -6.44434975 164.54226789 -7 168 C-7.66 168 -8.32 168 -9 168 C-9.33 170.64 -9.66 173.28 -10 176 C-10.66 176 -11.32 176 -12 176 C-12.08109164 167.86193539 -11.85925654 159.78732054 -11.37890625 151.6640625 C-11.28258156 149.97958511 -11.28258156 149.97958511 -11.18431091 148.26107788 C-11.04896012 145.90979396 -10.91190206 143.55860774 -10.77319336 141.20751953 C-10.56184598 137.61387933 -10.35772244 134.01987765 -10.15429688 130.42578125 C-10.02126325 128.13018338 -9.88781437 125.83460953 -9.75390625 123.5390625 C-9.66321617 121.93582626 -9.66321617 121.93582626 -9.57069397 120.30020142 C-9.28080858 115.45855809 -8.84061978 110.78089251 -8 106 C-7.80324751 103.47091068 -7.63926627 100.9391553 -7.5 98.40625 C-7.45939453 97.69650024 -7.41878906 96.98675049 -7.37695312 96.25549316 C-7.24820848 94.00382366 -7.12358014 91.75195849 -7 89.5 C-6.8370723 86.5310246 -6.66983575 83.56233737 -6.5 80.59375 C-6.4278125 79.28083984 -6.355625 77.96792969 -6.28125 76.61523438 C-6.02721597 73.34983866 -5.53783678 70.22702066 -5 67 C-4.80324751 64.47091068 -4.63926627 61.9391553 -4.5 59.40625 C-4.45939453 58.69650024 -4.41878906 57.98675049 -4.37695312 57.25549316 C-4.24820848 55.00382366 -4.12358014 52.75195849 -4 50.5 C-3.8370723 47.5310246 -3.66983575 44.56233737 -3.5 41.59375 C-3.4278125 40.28083984 -3.355625 38.96792969 -3.28125 37.61523438 C-3.02739588 34.35215123 -2.55603944 31.22179079 -2 28 C-1.87651975 26.44217565 -1.78135476 24.88176846 -1.71875 23.3203125 C-1.68136719 22.47339844 -1.64398438 21.62648437 -1.60546875 20.75390625 C-1.57066406 19.88636719 -1.53585937 19.01882812 -1.5 18.125 C-1.43010411 16.39831257 -1.35722343 14.6717432 -1.28125 12.9453125 C-1.25095703 12.18750488 -1.22066406 11.42969727 -1.18945312 10.64892578 C-0.93465219 7.08630959 -0.44301689 3.54413511 0 0 Z " fill="#F9ECFA" transform="translate(382,158)"/>
<path d="M0 0 C24.42 0 48.84 0 74 0 C73.67 1.32 73.34 2.64 73 4 C73 3.34 73 2.68 73 2 C72.37738281 2.21914062 71.75476563 2.43828125 71.11328125 2.6640625 C65.30136928 4.65810761 59.4703876 6.46248216 53.55493164 8.12109375 C50.84462978 8.88354361 48.14111332 9.66732312 45.4375 10.453125 C41.89055036 11.48067479 38.33639619 12.41785633 34.75 13.296875 C26.29040858 15.19561758 26.29040858 15.19561758 20.2890625 20.87109375 C19.52490602 23.96176623 19.23871222 26.83280037 19 30 C18.67128906 30.78761719 18.34257812 31.57523438 18.00390625 32.38671875 C16.69011888 35.80665553 16.58040795 39.1319889 16.4375 42.75 C16.12204433 49.87795567 16.12204433 49.87795567 15 51 C14.79224439 52.66204487 14.63281745 54.33029491 14.5 56 C14.11111111 60.88888889 14.11111111 60.88888889 13 62 C12.83964641 63.49663346 12.72235494 64.99795239 12.625 66.5 C12.31796999 69.96017944 11.80675682 72.88618073 10.5625 76.125 C8.75847308 81.00545931 8.27321704 86.00348593 7.82250977 91.15283203 C7.34546854 95.93503763 5.93259217 99.63244421 4 104 C3.5114262 106.59854091 3.5114262 106.59854091 3.4375 109.125 C2.79167715 118.36913102 1.38460277 127.31397585 -1.2109375 136.21484375 C-2.37632754 140.32832443 -3.30560753 144.49583424 -4.25390625 148.6640625 C-4.50011719 149.43492187 -4.74632812 150.20578125 -5 151 C-5.66 151.33 -6.32 151.66 -7 152 C-7.209846 134.8139234 -6.60242125 117.72770485 -5.72265625 100.56640625 C-5.59011838 97.90561339 -5.45797366 95.24480356 -5.32627869 92.58396912 C-5.05190003 87.05830108 -4.77316434 81.53286727 -4.49145508 76.00756836 C-4.16697254 69.64264651 -3.84869045 63.27743791 -3.533804 56.91203457 C-3.22810546 50.733694 -2.91896813 44.55553068 -2.60796928 38.37745476 C-2.47686956 35.76885588 -2.34650612 33.16021989 -2.21690559 30.5515461 C-2.03571843 26.91774888 -1.85057847 23.28417444 -1.66430664 19.65063477 C-1.61179749 18.58409164 -1.55928833 17.51754852 -1.50518799 16.41868591 C-1.4533284 15.42281464 -1.40146881 14.42694336 -1.34803772 13.40089417 C-1.30471345 12.54584573 -1.26138918 11.69079729 -1.21675205 10.80983829 C-0.93786689 7.19454521 -0.44975414 3.59803311 0 0 Z " fill="#FCF3FC" transform="translate(480,158)"/>
<path d="M0 0 C27.72 0 55.44 0 84 0 C84 1.65 84 3.3 84 5 C83.505 3.515 83.505 3.515 83 2 C76.1491706 3.52704454 69.29907167 5.05733343 62.44946289 6.58984375 C60.12085257 7.11044234 57.79207811 7.6303073 55.46313477 8.14941406 C52.10909954 8.89714261 48.75567004 9.64753683 45.40234375 10.3984375 C43.84881447 10.743871 43.84881447 10.743871 42.26390076 11.09628296 C37.12273203 12.25025314 32.04670722 13.48382187 27 15 C26.82861394 22.0025453 26.66940033 29.00529904 26.51782227 36.00830078 C26.4651475 38.38010623 26.40989871 40.75185621 26.35180664 43.12353516 C25.99680096 57.70037724 26.02477012 72.14774416 26.87008667 86.70599365 C27.05047601 89.89130415 27.18564222 93.07793474 27.31640625 96.265625 C27.35830078 97.27753906 27.40019531 98.28945313 27.44335938 99.33203125 C27.48267578 100.29496094 27.52199219 101.25789062 27.5625 102.25 C27.60568359 103.25933594 27.64886719 104.26867187 27.69335938 105.30859375 C27.94742148 111.54319714 28.05408592 117.76037409 28 124 C27.34 123.67 26.68 123.34 26 123 C25.3464517 120.44255431 24.81498774 117.94389152 24.34375 115.3515625 C24.19595093 114.5832309 24.04815186 113.81489929 23.89587402 113.02328491 C23.42235164 110.55867403 22.96013046 108.09214372 22.5 105.625 C22.03925581 103.1651353 21.57593851 100.70590545 21.10412598 98.24813843 C20.81029651 96.71686566 20.52288185 95.18434509 20.24255371 93.65054321 C19.58077422 90.19506611 18.9786946 87.9680419 17 85 C16.45336914 82.83032227 16.45336914 82.83032227 16.03515625 80.31640625 C15.87660156 79.39520996 15.71804688 78.47401367 15.5546875 77.52490234 C15.39226562 76.54730957 15.22984375 75.5697168 15.0625 74.5625 C13.86668016 67.66771283 12.56166799 60.89335627 10.7734375 54.125 C6.98370914 38.81296623 4.46789998 23.124677 1.5090332 7.63696289 C1.01720439 5.08912452 0.50889684 2.54448422 0 0 Z " fill="#F9CDCD" transform="translate(401,501)"/>
<path d="M0 0 C24.09 0 48.18 0 73 0 C72 2 72 2 69.5859375 2.88208008 C68.52632813 3.17493896 67.46671875 3.46779785 66.375 3.76953125 C65.20090576 4.09864502 64.02681152 4.42775879 62.81713867 4.7668457 C61.55748291 5.11191162 60.29782715 5.45697754 59 5.8125 C57.71499169 6.1711927 56.43024225 6.53081407 55.14575195 6.89135742 C52.60002243 7.60469188 50.05356181 8.31542276 47.50634766 9.0234375 C43.05944643 10.26195615 38.6201754 11.52408682 34.1875 12.8125 C32.94355469 13.16957031 31.69960938 13.52664062 30.41796875 13.89453125 C23.84796825 16.01945713 19.36722466 17.66548924 16 24 C15.32517578 25.21236328 15.32517578 25.21236328 14.63671875 26.44921875 C12.56409143 30.20351268 10.54068551 33.98316704 8.52734375 37.76953125 C5.41582039 43.5694108 2.07160271 49.11342553 -1.58203125 54.58984375 C-2.87834009 56.79321167 -3.55401438 58.50363896 -4 61 C-4.99 61 -5.98 61 -7 61 C-5.51383399 35.51383399 -5.51383399 35.51383399 -4 34 C-3.71016 31.65415492 -3.47724518 29.32681938 -3.28125 26.97265625 C-3.21844849 26.26854111 -3.15564697 25.56442596 -3.09094238 24.838974 C-2.8896959 22.58050132 -2.69423201 20.32158608 -2.5 18.0625 C-2.24422999 15.09462056 -1.98303563 12.12728795 -1.71875 9.16015625 C-1.661427 8.47365494 -1.604104 7.78715363 -1.54504395 7.07984924 C-1.11268587 2.22537174 -1.11268587 2.22537174 0 0 Z " fill="#FCF9FC" transform="translate(284,158)"/>
<path d="M0 0 C27.39 0 54.78 0 83 0 C82.67 0.66 82.34 1.32 82 2 C80.27903748 2.49279785 80.27903748 2.49279785 78.00952148 2.83789062 C77.16030624 2.97142944 76.311091 3.10496826 75.43614197 3.24255371 C74.50717606 3.37907349 73.57821014 3.51559326 72.62109375 3.65625 C71.66163345 3.80404907 70.70217316 3.95184814 69.71363831 4.10412598 C66.62280666 4.57781761 63.53021368 5.03877421 60.4375 5.5 C58.40938658 5.81042387 56.38139014 6.12161305 54.35351562 6.43359375 C52.35948536 6.73770367 50.36534548 7.04109579 48.37109375 7.34375 C47.39304779 7.49223389 46.41500183 7.64071777 45.40731812 7.79370117 C40.99101593 8.45200426 36.58331984 9.06821644 32.14111328 9.5234375 C31.40844742 9.60098267 30.67578156 9.67852783 29.9209137 9.75842285 C28.00357038 9.95293287 26.083979 10.12492902 24.16430664 10.29492188 C18.26150274 11.61019829 15.13578084 15.80466985 11.5 20.375 C10.71753906 21.34179688 9.93507813 22.30859375 9.12890625 23.3046875 C7.92310694 24.8312958 6.73161228 26.37024123 5.58984375 27.9453125 C2.43908895 32.19616135 -0.99009879 33.76967063 -6 35 C-7.0725 35.04125 -8.145 35.0825 -9.25 35.125 C-12.06906716 35.69970565 -12.06906716 35.69970565 -13.1171875 37.7421875 C-14.18329277 40.13059389 -15.09604575 42.54587626 -16 45 C-16.73817297 46.69270698 -17.48765421 48.38054128 -18.25 50.0625 C-18.58515625 50.81660156 -18.9203125 51.57070313 -19.265625 52.34765625 C-19.50796875 52.89292969 -19.7503125 53.43820312 -20 54 C-20.99 54 -21.98 54 -23 54 C-23.33 54.66 -23.66 55.32 -24 56 C-24.53477621 52.60621069 -25.05033758 49.20976949 -25.5625 45.8125 C-25.71396484 44.85279297 -25.86542969 43.89308594 -26.02148438 42.90429688 C-26.16005859 41.97294922 -26.29863281 41.04160156 -26.44140625 40.08203125 C-26.57232666 39.22843018 -26.70324707 38.3748291 -26.83813477 37.49536133 C-27.01245125 34.80804796 -26.63876982 32.60609923 -26 30 C-23.91674712 29.97226438 -21.83337771 29.95328316 -19.75 29.9375 C-18.58984375 29.92589844 -17.4296875 29.91429687 -16.234375 29.90234375 C-10.81200331 30.02739845 -5.40507839 30.5495768 0 31 C0 20.77 0 10.54 0 0 Z " fill="#FEF7F7" transform="translate(596,502)"/>
<path d="M0 0 C7.92 0 15.84 0 24 0 C24 13.86 24 27.72 24 42 C16.08 42 8.16 42 0 42 C0 28.14 0 14.28 0 0 Z " fill="#000001" transform="translate(653,200)"/>
<path d="M0 0 C0.33 0 0.66 0 1 0 C1.06469482 0.680625 1.12938965 1.36125 1.19604492 2.0625 C2.74049458 18.01341694 4.76210652 33.79220259 7.3737793 49.59960938 C7.58429932 50.88544922 7.79481934 52.17128906 8.01171875 53.49609375 C8.20209717 54.63232178 8.39247559 55.7685498 8.58862305 56.93920898 C9 60 9 60 9 65 C3.39 65 -2.22 65 -8 65 C-8 59 -8 59 -7 58 C-6.78740899 55.57882455 -6.62335401 53.17596222 -6.5 50.75 C-6.12873262 43.61341589 -6.12873262 43.61341589 -5.52514648 40.73730469 C-4.87156007 37.33051207 -4.59140927 33.92160834 -4.31640625 30.46875 C-4.19234565 29.0038818 -4.06798763 27.53903876 -3.94335938 26.07421875 C-3.75145202 23.78361644 -3.56192846 21.49289238 -3.37768555 19.20166016 C-3.19755187 16.9775461 -3.00766971 14.75443087 -2.81640625 12.53125 C-2.76424454 11.85090698 -2.71208282 11.17056396 -2.65834045 10.46960449 C-2.32195111 6.64677287 -1.62749199 3.48024528 0 0 Z " fill="#F59DF7" transform="translate(269,308)"/>
<path d="M0 0 C0.66 0 1.32 0 2 0 C2.18175781 0.81082031 2.36351562 1.62164062 2.55078125 2.45703125 C5.43196159 15.54520633 5.43196159 15.54520633 9.625 28.25 C10.96846245 31.91398849 11.45067179 35.15470253 12 39 C12.65217909 40.96892043 13.40229008 42.88119571 14.16796875 44.80859375 C18 54.90140845 18 54.90140845 18 59 C12.72 59 7.44 59 2 59 C0.87721124 51.14047867 0.87721124 51.14047867 0.9375 47.94140625 C0.94587891 47.23435547 0.95425781 46.52730469 0.96289062 45.79882812 C0.97513672 45.06083984 0.98738281 44.32285156 1 43.5625 C1.05311936 37.6759086 0.92322032 31.87218188 0.5 26 C-0.12065797 17.32827169 -0.09051878 8.68980303 0 0 Z " fill="#FCA0FC" transform="translate(884,316)"/>
<path d="M0 0 C1.32 0.33 2.64 0.66 4 1 C3.2678125 1.54914062 2.535625 2.09828125 1.78125 2.6640625 C-1.04906294 5.04120736 -3.20208379 7.48642223 -5.5 10.375 C-6.28246094 11.34179688 -7.06492187 12.30859375 -7.87109375 13.3046875 C-9.07689306 14.8312958 -10.26838772 16.37024123 -11.41015625 17.9453125 C-14.56091105 22.19616135 -17.99009879 23.76967063 -23 25 C-24.0725 25.04125 -25.145 25.0825 -26.25 25.125 C-29.06906716 25.69970565 -29.06906716 25.69970565 -30.1171875 27.7421875 C-31.18329277 30.13059389 -32.09604575 32.54587626 -33 35 C-33.73817297 36.69270698 -34.48765421 38.38054128 -35.25 40.0625 C-35.58515625 40.81660156 -35.9203125 41.57070313 -36.265625 42.34765625 C-36.50796875 42.89292969 -36.7503125 43.43820312 -37 44 C-37.99 44 -38.98 44 -40 44 C-40.33 44.66 -40.66 45.32 -41 46 C-41.53477621 42.60621069 -42.05033758 39.20976949 -42.5625 35.8125 C-42.71396484 34.85279297 -42.86542969 33.89308594 -43.02148438 32.90429688 C-43.16005859 31.97294922 -43.29863281 31.04160156 -43.44140625 30.08203125 C-43.63778687 28.80162964 -43.63778687 28.80162964 -43.83813477 27.49536133 C-44.01245125 24.80804796 -43.63876982 22.60609923 -43 20 C-34.25776104 19.88360924 -25.70306831 20.15092017 -17 21 C-16.67 16.71 -16.34 12.42 -16 8 C-15.67 8 -15.34 8 -15 8 C-15 10.64 -15 13.28 -15 16 C-13.68 15.67 -12.36 15.34 -11 15 C-10.9175 14.4225 -10.835 13.845 -10.75 13.25 C-9.7924861 10.3774583 -8.18571625 9.04910899 -6 7 C-5.67 6.34 -5.34 5.68 -5 5 C-4.34 5 -3.68 5 -3 5 C-3 4.34 -3 3.68 -3 3 C-2.34 3 -1.68 3 -1 3 C-0.67 2.01 -0.34 1.02 0 0 Z " fill="#F4CBCB" transform="translate(613,512)"/>
<path d="M0 0 C0.33 0 0.66 0 1 0 C1.22153669 23.12843036 0.65413486 46.24220618 0.06640625 69.36157227 C0.00443763 71.82368577 -0.05486236 74.28584699 -0.11328125 76.74804688 C-0.20841051 80.70743486 -0.32056304 84.66619101 -0.4375 88.625 C-0.46448975 89.74890137 -0.49147949 90.87280273 -0.51928711 92.03076172 C-0.5528833 93.04412598 -0.58647949 94.05749023 -0.62109375 95.1015625 C-0.6461499 95.96088379 -0.67120605 96.82020508 -0.69702148 97.70556641 C-1.02306024 100.17463347 -1.7632095 101.85425044 -3 104 C-3.23506051 80.07988049 -3.02490107 56.21673626 -2.0625 32.3125 C-2.01893372 31.20909271 -1.97536743 30.10568542 -1.93048096 28.96884155 C-1.8037444 25.80841882 -1.67107964 22.64832118 -1.53515625 19.48828125 C-1.49655991 18.55871613 -1.45796356 17.629151 -1.41819763 16.67141724 C-1.1641323 11.07660084 -0.67476227 5.56016823 0 0 Z " fill="#E6A4F5" transform="translate(993,222)"/>
<path d="M0 0 C27.39 0 54.78 0 83 0 C82.67 0.66 82.34 1.32 82 2 C79.47143555 2.61010742 79.47143555 2.61010742 76.13671875 3.10546875 C74.93982422 3.28400391 73.74292969 3.46253906 72.50976562 3.64648438 C71.24841797 3.82501953 69.98707031 4.00355469 68.6875 4.1875 C66.81288086 4.47270508 66.81288086 4.47270508 64.90039062 4.76367188 C55.51540762 6.1288519 55.51540762 6.1288519 51 5 C58.425 3.515 58.425 3.515 66 2 C44.55 1.67 23.1 1.34 1 1 C1 6.61 1 12.22 1 18 C0.67 18 0.34 18 0 18 C0 12.06 0 6.12 0 0 Z " fill="#E5C7C7" transform="translate(596,502)"/>
<path d="M0 0 C-7.88241031 1.87958784 -15.79932846 2.62160973 -23.8588562 3.26205444 C-36.23583308 4.24746125 -48.56272183 5.41426633 -60.86938477 7.08569336 C-67.28121767 7.9232422 -73.53577751 8.14785647 -80 8 C-80 7.67 -80 7.34 -80 7 C-79.22809326 6.91435791 -78.45618652 6.82871582 -77.66088867 6.74047852 C-74.16937376 6.35118893 -70.67844063 5.95690475 -67.1875 5.5625 C-65.36508789 5.36043945 -65.36508789 5.36043945 -63.50585938 5.15429688 C-62.34248047 5.02216797 -61.17910156 4.89003906 -59.98046875 4.75390625 C-58.90692139 4.63345947 -57.83337402 4.5130127 -56.72729492 4.38891602 C-53.91381776 4.07079039 -53.91381776 4.07079039 -51 3 C-49.47372569 2.79907692 -47.94195898 2.63841869 -46.40844727 2.50341797 C-45.01669029 2.37856522 -45.01669029 2.37856522 -43.59681702 2.25119019 C-42.09676369 2.12298386 -42.09676369 2.12298386 -40.56640625 1.9921875 C-39.53692368 1.90244659 -38.5074411 1.81270569 -37.44676208 1.72024536 C-35.26895479 1.53178196 -33.09097525 1.34530015 -30.9128418 1.16064453 C-27.57856089 0.87636932 -24.2453736 0.58108531 -20.91210938 0.28515625 C-18.79693286 0.10349177 -16.68170012 -0.07751961 -14.56640625 -0.2578125 C-13.06938927 -0.39209152 -13.06938927 -0.39209152 -11.54212952 -0.52908325 C-10.1456443 -0.64447952 -10.1456443 -0.64447952 -8.72094727 -0.76220703 C-7.90392838 -0.83247101 -7.08690948 -0.90273499 -6.24513245 -0.97512817 C-3.97544281 -1.00027205 -2.16463931 -0.65368291 0 0 Z " fill="#ECBAF7" transform="translate(748,160)"/>
<path d="M0 0 C0.33 0 0.66 0 1 0 C1.1319298 6.57842349 0.81228127 12.91863085 -0.05859375 19.4375 C-0.22150658 20.70762939 -0.22150658 20.70762939 -0.38771057 22.00341797 C-0.61588863 23.77171367 -0.84711107 25.53961907 -1.08129883 27.30712891 C-1.44017385 30.0202142 -1.78816423 32.73454089 -2.13476562 35.44921875 C-2.35874222 37.17456143 -2.58332921 38.899825 -2.80859375 40.625 C-2.91280136 41.43638428 -3.01700897 42.24776855 -3.12437439 43.08374023 C-3.88417653 48.76835307 -3.88417653 48.76835307 -5 51 C-5.39315079 53.8754532 -5.74649025 56.74111846 -6.0625 59.625 C-6.15337891 60.42679688 -6.24425781 61.22859375 -6.33789062 62.0546875 C-6.56197653 64.03607868 -6.7814275 66.01799305 -7 68 C-7.33 68 -7.66 68 -8 68 C-7.86155153 64.20802551 -7.71299256 60.4165141 -7.5625 56.625 C-7.52318359 55.54476562 -7.48386719 54.46453125 -7.44335938 53.3515625 C-7.40146484 52.3203125 -7.35957031 51.2890625 -7.31640625 50.2265625 C-7.27974854 49.27346191 -7.24309082 48.32036133 -7.20532227 47.33837891 C-7 45 -7 45 -6 43 C-5.84235417 41.04402397 -5.72369673 39.08483504 -5.625 37.125 C-5.31830234 32.67058158 -4.75903865 28.61162128 -3.5625 24.3125 C-1.37775046 16.35529946 -0.77353836 8.19040621 0 0 Z " fill="#E6AFF5" transform="translate(596,194)"/>
<path d="M0 0 C0.33 0 0.66 0 1 0 C1.17287485 4.23543378 0.92785156 7.74693237 -0.36328125 11.78515625 C-1.2373459 14.82561427 -1.85445552 17.90335263 -2.5 21 C-3.49875971 25.73412105 -4.57621774 30.37270767 -6 35 C-6.2371875 35.85851562 -6.474375 36.71703125 -6.71875 37.6015625 C-6.9765625 38.51679687 -7.234375 39.43203125 -7.5 40.375 C-7.7371875 41.22835937 -7.974375 42.08171875 -8.21875 42.9609375 C-9 45 -9 45 -11 46 C-11.04254356 44.00045254 -11.04080783 41.99958364 -11 40 C-10.505 39.505 -10.505 39.505 -10 39 C-9.50122124 36.77953311 -9.05230709 34.54782148 -8.625 32.3125 C-8.36153818 30.95295785 -8.09719237 29.59358675 -7.83203125 28.234375 C-7.62827881 27.18733398 -7.62827881 27.18733398 -7.42041016 26.11914062 C-6.35154346 20.73135728 -5.16610545 15.36739319 -4 10 C-3.34 10 -2.68 10 -2 10 C-2 8.02 -2 6.04 -2 4 C-1.34 4 -0.68 4 0 4 C0 2.68 0 1.36 0 0 Z " fill="#FF9494" transform="translate(723,538)"/>
<path d="M0 0 C0.33 0 0.66 0 1 0 C2.46903121 13.95579653 2.09469427 27.98816171 2 42 C2.66 42 3.32 42 4 42 C4 38.7 4 35.4 4 32 C4.33 32 4.66 32 5 32 C5.12847075 42.06354218 4.79692838 51.96724089 4 62 C1.93075602 58.55545622 1.639037 55.63418309 1.41015625 51.65234375 C1.33684082 50.40694824 1.26352539 49.16155273 1.18798828 47.87841797 C0.89210875 41.77407746 0.63630646 35.67079793 0.4375 29.5625 C0.3950415 28.30219971 0.35258301 27.04189941 0.30883789 25.7434082 C0.03343949 17.15840318 -0.13350594 8.58888239 0 0 Z " fill="#C47FCA" transform="translate(780,304)"/>
<path d="M0 0 C-0.94359375 0.27263672 -0.94359375 0.27263672 -1.90625 0.55078125 C-9.20025499 2.69284597 -16.19744807 5.2731556 -23.25 8.09765625 C-24.14203125 8.45480713 -25.0340625 8.81195801 -25.953125 9.17993164 C-26.62859375 9.4505542 -27.3040625 9.72117676 -28 10 C-27.99476318 10.60247559 -27.98952637 11.20495117 -27.98413086 11.82568359 C-27.8859184 24.92648023 -28.0862012 37.9294136 -29 51 C-29.33 51 -29.66 51 -30 51 C-30 36.81 -30 22.62 -30 8 C-23.87647531 5.55059012 -17.88991435 3.17200016 -11.625 1.1875 C-10.94050781 0.95869141 -10.25601563 0.72988281 -9.55078125 0.49414062 C-3.45106913 -1.44236992 -3.45106913 -1.44236992 0 0 Z " fill="#E4A3F4" transform="translate(1023,168)"/>
<path d="M0 0 C0.33 0 0.66 0 1 0 C1.02688151 1.64574566 1.04634123 3.29161413 1.0625 4.9375 C1.07410156 5.85402344 1.08570313 6.77054688 1.09765625 7.71484375 C1 10 1 10 0 11 C-0.16035359 12.49663346 -0.27764506 13.99795239 -0.375 15.5 C-0.68203001 18.96017944 -1.19324318 21.88618073 -2.4375 25.125 C-4.30512983 30.15672114 -4.76536177 35.2816131 -5.26538086 40.59228516 C-5.79714044 45.79714044 -5.79714044 45.79714044 -8 48 C-8.2635606 41.11813996 -7.84472171 34.66523539 -6 28 C-5.67 27.67 -5.34 27.34 -5 27 C-4.64426618 25.34594985 -4.34150658 23.68042597 -4.0625 22.01171875 C-3.88976562 20.99529297 -3.71703125 19.97886719 -3.5390625 18.93164062 C-3.27222656 17.32579102 -3.27222656 17.32579102 -3 15.6875 C-2.64714971 13.58701803 -2.2930325 11.48674839 -1.9375 9.38671875 C-1.70353516 7.98232544 -1.70353516 7.98232544 -1.46484375 6.54956055 C-1.06093261 4.33420128 -0.57734657 2.17558748 0 0 Z " fill="#E9B8F6" transform="translate(493,209)"/>
<path d="M0 0 C0.33 0 0.66 0 1 0 C0.86068862 3.0836642 0.71240719 6.16683417 0.5625 9.25 C0.52318359 10.12269531 0.48386719 10.99539063 0.44335938 11.89453125 C0.40146484 12.73886719 0.35957031 13.58320313 0.31640625 14.453125 C0.27974854 15.22817383 0.24309082 16.00322266 0.20532227 16.80175781 C0.0034861 18.96267677 -0.46247336 20.90182709 -1 23 C-1.25200803 26.25860386 -1.44060773 29.51175312 -1.60546875 32.77539062 C-1.89759026 37.89759026 -1.89759026 37.89759026 -3 39 C-3.28593333 42.5900518 -3.44910171 46.18014845 -3.62109375 49.77734375 C-4 53 -4 53 -6 55 C-5.72496151 36.49741068 -2.69566179 18.26960647 0 0 Z " fill="#F4C0FB" transform="translate(586,266)"/>
<path d="M0 0 C0.33 0 0.66 0 1 0 C1 3.96 1 7.92 1 12 C1.66 12 2.32 12 3 12 C2.938125 10.576875 2.938125 10.576875 2.875 9.125 C3 6 3 6 5 4 C5.25108225 10.4025974 5.25108225 10.4025974 4.09375 13.15625 C2.56940183 17.11955525 2.02220563 21.12877787 1.375 25.3125 C1.17390625 26.56643555 1.17390625 26.56643555 0.96875 27.84570312 C0.64065239 29.89631318 0.31961819 31.94805121 0 34 C-0.33 34 -0.66 34 -1 34 C-1.10492107 22.6184852 -1.17759935 11.33439373 0 0 Z " fill="#DD93E1" transform="translate(369,322)"/>
<path d="M0 0 C0.33 0 0.66 0 1 0 C1.02489435 4.00186193 1.04295127 8.00369328 1.05493164 12.00561523 C1.05993113 13.36434719 1.06673291 14.72307385 1.07543945 16.08178711 C1.08769842 18.04538585 1.09273487 20.00902541 1.09765625 21.97265625 C1.10289307 23.15093994 1.10812988 24.32922363 1.11352539 25.54321289 C0.99692685 29.09357576 0.5655059 32.49542884 0 36 C-0.33 36 -0.66 36 -1 36 C-1.33786094 32.4587501 -1.66947831 28.91694184 -2 25.375 C-2.09539063 24.37597656 -2.19078125 23.37695312 -2.2890625 22.34765625 C-2.73400626 17.54861994 -3.13177309 12.82618926 -3 8 C-2.67 8 -2.34 8 -2 8 C-1.67 9.65 -1.34 11.3 -1 13 C-0.67 8.71 -0.34 4.42 0 0 Z " fill="#D187D5" transform="translate(990,327)"/>
<path d="M0 0 C0.33 0 0.66 0 1 0 C0.98839844 0.67546875 0.97679687 1.3509375 0.96484375 2.046875 C0.95582031 2.93890625 0.94679687 3.8309375 0.9375 4.75 C0.92589844 5.63171875 0.91429687 6.5134375 0.90234375 7.421875 C0.88519666 9.91893045 0.88519666 9.91893045 1.5859375 11.890625 C2.2187492 15.1143827 1.39912481 17.8162378 0.6875 21 C0.42324219 22.216875 0.15898437 23.43375 -0.11328125 24.6875 C-0.84108347 27.40633824 -1.61161009 29.57486479 -3 32 C-3.53132662 21.03892859 -1.90858766 10.75852688 0 0 Z " fill="#D484DA" transform="translate(163,326)"/>
<path d="M0 0 C0.33 0 0.66 0 1 0 C1.02689216 1.47906892 1.04634621 2.95827483 1.0625 4.4375 C1.07410156 5.26121094 1.08570313 6.08492188 1.09765625 6.93359375 C1 9 1 9 0 10 C-0.39454223 11.84599688 -0.74176866 13.70225822 -1.0625 15.5625 C-1.32740234 17.08037109 -1.32740234 17.08037109 -1.59765625 18.62890625 C-1.73042969 19.41136719 -1.86320312 20.19382812 -2 21 C-2.66 21 -3.32 21 -4 21 C-4 15.72 -4 10.44 -4 5 C-3.01 5.495 -3.01 5.495 -2 6 C-1.34 4.02 -0.68 2.04 0 0 Z " fill="#EAA1F5" transform="translate(476,303)"/>
<path d="M0 0 C1.32 0.33 2.64 0.66 4 1 C3.26910156 1.5465625 2.53820312 2.093125 1.78515625 2.65625 C-1.08077851 5.06797631 -3.24398266 7.56455543 -5.5625 10.5 C-8.22859524 13.86380821 -10.90434603 17.02367963 -14 20 C-13.67 18.35 -13.34 16.7 -13 15 C-12.34 15 -11.68 15 -11 15 C-10.9175 14.4225 -10.835 13.845 -10.75 13.25 C-9.7924861 10.3774583 -8.18571625 9.04910899 -6 7 C-5.67 6.34 -5.34 5.68 -5 5 C-4.34 5 -3.68 5 -3 5 C-3 4.34 -3 3.68 -3 3 C-2.34 3 -1.68 3 -1 3 C-0.67 2.01 -0.34 1.02 0 0 Z " fill="#FFA3A3" transform="translate(613,512)"/>
<path d="M0 0 C0.33 0 0.66 0 1 0 C1.4917673 10.572997 -0.9745611 20.93537327 -4 31 C-4.66 30.67 -5.32 30.34 -6 30 C-5.37737723 26.68704871 -4.75145763 23.3747281 -4.125 20.0625 C-3.86396484 18.67321289 -3.86396484 18.67321289 -3.59765625 17.25585938 C-2.50272978 11.47708076 -1.30578878 5.73488315 0 0 Z " fill="#F6C9FB" transform="translate(482,266)"/>
<path d="M0 0 C0.33 0 0.66 0 1 0 C1.1506657 5.97868885 0.62831662 11.54783847 -0.375 17.4375 C-0.50132812 18.25154297 -0.62765625 19.06558594 -0.7578125 19.90429688 C-1.09899689 21.94969728 -1.54125161 23.97771923 -2 26 C-2.66 26.33 -3.32 26.66 -4 27 C-4.35517694 17.76539951 -2.79774958 8.79292724 0 0 Z " fill="#E4ABF4" transform="translate(395,206)"/>
<path d="M0 0 C-0.94359375 0.27263672 -0.94359375 0.27263672 -1.90625 0.55078125 C-7.36932365 2.15514776 -12.68779651 3.95772738 -18 6 C-21.86782896 7.44095589 -24.86458672 8.2432596 -29 8 C-23.09542799 4.80169016 -16.61276193 2.82093262 -10.25 0.75 C-9.16203125 0.39421875 -8.0740625 0.0384375 -6.953125 -0.328125 C-4.08379604 -0.98093529 -2.70631486 -1.02472116 0 0 Z " fill="#ECBBF7" transform="translate(1023,168)"/>
<path d="M0 0 C0.33 0 0.66 0 1 0 C1.26522258 4.37617252 0.29870686 7.83046745 -1 12 C-1.24105469 12.87011719 -1.48210938 13.74023438 -1.73046875 14.63671875 C-1.98441406 15.54035156 -2.23835937 16.44398438 -2.5 17.375 C-2.7371875 18.22835937 -2.974375 19.08171875 -3.21875 19.9609375 C-4 22 -4 22 -6 23 C-6.04254356 21.00045254 -6.04080783 18.99958364 -6 17 C-5.67 16.67 -5.34 16.34 -5 16 C-4.67708203 14.63200204 -4.39165725 13.25506824 -4.125 11.875 C-3.22301609 7.60424286 -1.84755058 3.94703988 0 0 Z " fill="#FF7474" transform="translate(718,561)"/>
<path d="M0 0 C-1.0725 0.37125 -2.145 0.7425 -3.25 1.125 C-7.30646431 2.8716466 -8.83645809 5.12054555 -11 9 C-11.74968707 10.29184831 -12.49968467 11.58351648 -13.25 12.875 C-13.8275 13.90625 -14.405 14.9375 -15 16 C-15.67578125 14.3203125 -15.67578125 14.3203125 -16 12 C-14.85546875 9.4921875 -14.85546875 9.4921875 -13.1875 6.875 C-12.64480469 6.00617188 -12.10210937 5.13734375 -11.54296875 4.2421875 C-9.70291124 1.56828115 -8.72942697 0.20573581 -5.5625 -0.6875 C-3 -1 -3 -1 0 0 Z " fill="#E9B3F6" transform="translate(311,173)"/>
<path d="M0 0 C0.99 0.33 1.98 0.66 3 1 C2.49339844 2.10408203 2.49339844 2.10408203 1.9765625 3.23046875 C1.30753906 4.69419922 1.30753906 4.69419922 0.625 6.1875 C0.18414063 7.15042969 -0.25671875 8.11335937 -0.7109375 9.10546875 C-1.87321851 11.71531792 -2.95924781 14.33975959 -4 17 C-5.98727509 11.03817472 -4.57624228 7.47451484 -2 2 C-1.34 2 -0.68 2 0 2 C0 1.34 0 0.68 0 0 Z " fill="#FF9898" transform="translate(580,539)"/>
<path d="M0 0 C0.66 0 1.32 0 2 0 C0.56347895 4.91441412 -1.54159615 9.00238358 -4.125 13.375 C-4.49753906 14.01566406 -4.87007813 14.65632812 -5.25390625 15.31640625 C-6.16434002 16.88048477 -7.08148191 18.44065534 -8 20 C-8.33 19.01 -8.66 18.02 -9 17 C-8.05184571 15.30330285 -7.03655068 13.64418383 -6 12 C-4.60143153 9.02804199 -3.29538625 6.0181842 -2 3 C-1.34 3 -0.68 3 0 3 C0 2.01 0 1.02 0 0 Z " fill="#E9B5F6" transform="translate(293,189)"/>
<path d="M0 0 C0.33 0 0.66 0 1 0 C1.04241723 2.33294775 1.04092937 4.66702567 1 7 C0.67 7.33 0.34 7.66 0 8 C-0.18541131 9.89237259 -0.32310701 11.78951011 -0.4375 13.6875 C-0.76284984 18.09021799 -1.28614748 21.88675396 -3 26 C-3.33 26 -3.66 26 -4 26 C-4.15918637 20.71224405 -3.60104139 15.92821567 -2.5625 10.75 C-2.42779297 10.04359375 -2.29308594 9.3371875 -2.15429688 8.609375 C-1.58238125 5.66331205 -0.95007523 2.8502257 0 0 Z " fill="#E7ADF5" transform="translate(400,180)"/>
<path d="M0 0 C-2.25403126 2.25403126 -3.08332064 2.38109524 -6.125 2.9375 C-9.3604313 3.58354425 -12.26355971 4.42902559 -15.3125 5.6875 C-18.95657797 6.9845447 -19.59825551 7.11889609 -23 6 C-20.75083381 5.18512829 -18.50073022 4.37303082 -16.25 3.5625 C-15.61578125 3.33240234 -14.9815625 3.10230469 -14.328125 2.86523438 C-9.32485128 1.06718288 -5.31853168 -0.14773699 0 0 Z " fill="#EDBEF8" transform="translate(334,165)"/>
<path d="M0 0 C0.33 0 0.66 0 1 0 C1.04254356 1.99954746 1.04080783 4.00041636 1 6 C0.67 6.33 0.34 6.66 0 7 C-0.28593333 10.5900518 -0.44910171 14.18014845 -0.62109375 17.77734375 C-1 21 -1 21 -3 23 C-2.88979143 19.91595192 -2.75924186 16.83308808 -2.625 13.75 C-2.5940625 12.87730469 -2.563125 12.00460937 -2.53125 11.10546875 C-2.49257813 10.26113281 -2.45390625 9.41679687 -2.4140625 8.546875 C-2.3826416 7.77182617 -2.3512207 6.99677734 -2.31884766 6.19824219 C-1.96973494 3.79134258 -1.19448896 2.10397705 0 0 Z " fill="#EFA8F9" transform="translate(583,298)"/>
<path d="M0 0 C0.33 0 0.66 0 1 0 C1.24511382 4.91759604 0.34512067 9.18525495 -1 13.875 C-1.28617188 14.90753906 -1.28617188 14.90753906 -1.578125 15.9609375 C-2.04523728 17.64254171 -2.5216642 19.32155385 -3 21 C-3.33 21 -3.66 21 -4 21 C-4.09765625 14.84765625 -4.09765625 14.84765625 -4 13 C-3.67 12.67 -3.34 12.34 -3 12 C-2.63021574 10.36197128 -2.30331217 8.71412956 -2 7.0625 C-1.1070615 2.21412301 -1.1070615 2.21412301 0 0 Z " fill="#FF2F2F" transform="translate(707,605)"/>
<path d="M0 0 C0.33 0 0.66 0 1 0 C0.98839844 0.67546875 0.97679687 1.3509375 0.96484375 2.046875 C0.95582031 2.93890625 0.94679687 3.8309375 0.9375 4.75 C0.92589844 5.63171875 0.91429687 6.5134375 0.90234375 7.421875 C0.90551786 9.95506464 0.90551786 9.95506464 1.5625 12.15625 C2.2034791 14.85751905 1.15374671 16.55677167 0 19 C-0.33 19 -0.66 19 -1 19 C-1.02705308 16.58325776 -1.04686438 14.1668206 -1.0625 11.75 C-1.07087891 11.06808594 -1.07925781 10.38617188 -1.08789062 9.68359375 C-1.10428392 6.30657446 -1.05628768 3.22708361 0 0 Z " fill="#DF97E0" transform="translate(163,326)"/>
<path d="M0 0 C1.10176129 3.35216734 0.89303058 5.75121078 0.1875 9.1875 C0.01605469 10.06792969 -0.15539062 10.94835937 -0.33203125 11.85546875 C-0.55246094 12.56316406 -0.77289063 13.27085937 -1 14 C-1.99 14.495 -1.99 14.495 -3 15 C-2.8858134 13.06183265 -2.75826577 11.12444901 -2.625 9.1875 C-2.55539063 8.10855469 -2.48578125 7.02960938 -2.4140625 5.91796875 C-2 3 -2 3 0 0 Z " fill="#E6A9F6" transform="translate(182,263)"/>
<path d="M0 0 C2.97 0 5.94 0 9 0 C8 2 8 2 5.85546875 2.88671875 C4.97503906 3.15097656 4.09460937 3.41523438 3.1875 3.6875 C2.31480469 3.95949219 1.44210937 4.23148438 0.54296875 4.51171875 C-2.06873834 5.01319861 -3.51716384 4.86233704 -6 4 C-4.02 3.01 -2.04 2.02 0 1 C0 0.67 0 0.34 0 0 Z " fill="#F0C9F8" transform="translate(1035,160)"/>
<path d="M0 0 C0.33 0 0.66 0 1 0 C0.88655624 2.1464753 0.75893655 4.29220592 0.625 6.4375 C0.52058594 8.22994141 0.52058594 8.22994141 0.4140625 10.05859375 C0.27742188 11.02925781 0.14078125 11.99992187 0 13 C-0.99 13.495 -0.99 13.495 -2 14 C-2.3690205 4.58997722 -2.3690205 4.58997722 0 0 Z " fill="#EAAAF7" transform="translate(382,277)"/>
<path d="M0 0 C1.134375 0.020625 2.26875 0.04125 3.4375 0.0625 C0.65996623 1.50808008 -2.10789908 2.71285413 -5.0625 3.75 C-5.8153125 4.02199219 -6.568125 4.29398438 -7.34375 4.57421875 C-9.79847493 5.1144311 -11.20673338 4.86024824 -13.5625 4.0625 C-12.92441406 3.85753906 -12.28632813 3.65257812 -11.62890625 3.44140625 C-10.80261719 3.17199219 -9.97632813 2.90257812 -9.125 2.625 C-8.30128906 2.35816406 -7.47757813 2.09132812 -6.62890625 1.81640625 C-1.73362299 0.03041444 -1.73362299 0.03041444 0 0 Z " fill="#ECBBF7" transform="translate(255.5625,157.9375)"/>
<path d="M0 0 C1.31534494 3.65857532 0.65468309 6.08026481 -0.4375 9.75 C-0.86869141 11.22726562 -0.86869141 11.22726562 -1.30859375 12.734375 C-1.53675781 13.48203125 -1.76492188 14.2296875 -2 15 C-2.66 14.67 -3.32 14.34 -4 14 C-3.71715982 12.22773547 -3.42339502 10.457212 -3.125 8.6875 C-2.96257812 7.70136719 -2.80015625 6.71523438 -2.6328125 5.69921875 C-2 3 -2 3 0 0 Z " fill="#F2B8FA" transform="translate(480,282)"/>
<path d="M0 0 C0.66 0 1.32 0 2 0 C1.8864371 1.64666203 1.75882619 3.29236082 1.625 4.9375 C1.52058594 6.31228516 1.52058594 6.31228516 1.4140625 7.71484375 C1.27742187 8.46894531 1.14078125 9.22304687 1 10 C0.01 10.495 0.01 10.495 -1 11 C-1.14285714 3.57142857 -1.14285714 3.57142857 0 0 Z " fill="#E6B3F5" transform="translate(191,222)"/>
<path d="M0 0 C0.33 0 0.66 0 1 0 C1 2.64 1 5.28 1 8 C1.66 8 2.32 8 3 8 C2.67 9.32 2.34 10.64 2 12 C1.01 12 0.02 12 -1 12 C-0.67 8.04 -0.34 4.08 0 0 Z " fill="#EFDADA" transform="translate(597,520)"/>
<path d="M0 0 C0.33 0 0.66 0 1 0 C0.88590407 1.45922693 0.75834456 2.91740598 0.625 4.375 C0.55539062 5.18710937 0.48578125 5.99921875 0.4140625 6.8359375 C0 9 0 9 -2 11 C-2.28571429 3.57142857 -2.28571429 3.57142857 0 0 Z " fill="#FF9393" transform="translate(726,527)"/>
</svg>
